<mxfile host="Electron" modified="2024-03-27T13:48:42.504Z" agent="Mozilla/5.0 (Windows NT 10.0; Win64; x64) AppleWebKit/537.36 (KHTML, like Gecko) draw.io/24.0.4 Chrome/120.0.6099.109 Electron/28.1.0 Safari/537.36" etag="ufnlFvlyYVQmPklPXaII" version="24.0.4" type="device">
  <diagram name="Page-1" id="4MeypnB-4l4VPVULxPHv">
    <mxGraphModel dx="1834" dy="36" grid="0" gridSize="10" guides="1" tooltips="1" connect="1" arrows="1" fold="1" page="0" pageScale="1" pageWidth="850" pageHeight="1100" background="#ffffff" math="0" shadow="0">
      <root>
        <mxCell id="0" />
        <mxCell id="1" parent="0" />
        <UserObject label="&lt;div style=&quot;font-size: 1px&quot;&gt;&lt;p style=&quot;text-align:right;margin-left:0;margin-right:0;margin-top:0px;margin-bottom:0px;text-indent:0;vertical-align:bottom;direction:ltr;&quot;&gt;&lt;font style=&quot;font-size:14.11px;font-family:Segoe UI Semibold;color:#6b859a;direction:ltr;letter-spacing:0px;line-height:120%;opacity:1&quot;&gt;&lt;span&gt;Platform Connectivity vNet&lt;/span&gt;&lt;/font&gt;&lt;font style=&quot;font-size:14.11px;font-family:Segoe UI Semibold;color:#6b859a;direction:ltr;letter-spacing:0px;line-height:120%;opacity:1&quot;&gt;&lt;span&gt;&lt;br&gt;&lt;/span&gt;&lt;/font&gt;&lt;/p&gt;&lt;/div&gt;" tags="Background" id="tmEIZODM_RHfzEJAgpSY-1">
          <mxCell style="verticalAlign=bottom;align=right;overflow=width;vsdxID=10738;fillColor=#feffff;gradientColor=none;shape=stencil(nZBLDoAgDERP0z3SIyjew0SURgSD+Lu9kMZoXLhwN9O+tukAlrNpJg1SzDH4QW/URgNYgZTkjA4UkwJUgGXng+6DX1zLfmoymdXo17xh5zmRJ6Q42BWCfc2oJfdAr+Yv+AP9Cb7OJ3H/2JG1HNGz/84klThPVCc=);dashed=1;dashPattern=1.00 2.00;strokeColor=#6b859a;points=[[1,0.5,0],[0.5,0,0],[0.5,0.5,0],[0.5,0.5,0]];labelBackgroundColor=none;rounded=0;html=1;whiteSpace=wrap;strokeWidth=2;fontStyle=1" vertex="1" parent="1">
            <mxGeometry x="126" y="810" width="540" height="240" as="geometry" />
          </mxCell>
        </UserObject>
        <UserObject label="&lt;div style=&quot;font-size: 1px&quot;&gt;&lt;p style=&quot;text-align:right;margin-left:0;margin-right:0;margin-top:0px;margin-bottom:0px;text-indent:0;vertical-align:bottom;direction:ltr;&quot;&gt;&lt;font style=&quot;font-size:14.11px;font-family:Segoe UI Semibold;color:#6b859a;direction:ltr;letter-spacing:0px;line-height:120%;opacity:1&quot;&gt;&lt;span&gt;AzureFirewallSubnet&lt;/span&gt;&lt;/font&gt;&lt;font style=&quot;font-size:14.11px;font-family:Segoe UI Semibold;color:#6b859a;direction:ltr;letter-spacing:0px;line-height:120%;opacity:1&quot;&gt;&lt;span&gt;&lt;br&gt;&lt;/span&gt;&lt;/font&gt;&lt;/p&gt;&lt;/div&gt;" tags="Background" id="tmEIZODM_RHfzEJAgpSY-2">
          <mxCell style="verticalAlign=bottom;align=right;overflow=width;vsdxID=10739;fillColor=#f2f2f2;gradientColor=none;shape=stencil(nZBLDoAgDERP0z3SIyjew0SURgSD+Lu9kMZoXLhwN9O+tukAlrNpJg1SzDH4QW/URgNYgZTkjA4UkwJUgGXng+6DX1zLfmoymdXo17xh5zmRJ6Q42BWCfc2oJfdAr+Yv+AP9Cb7OJ3H/2JG1HNGz/84klThPVCc=);dashed=1;dashPattern=1.00 2.00;strokeColor=#6b859a;points=[[1,0.5,0],[0.5,0,0],[0.5,0.5,0],[0.5,0.5,0]];labelBackgroundColor=none;rounded=0;html=1;whiteSpace=wrap;strokeWidth=2;fontStyle=1" vertex="1" parent="1">
            <mxGeometry x="446" y="830" width="200" height="180" as="geometry" />
          </mxCell>
        </UserObject>
        <UserObject label="&lt;div style=&quot;font-size: 1px&quot;&gt;&lt;/div&gt;" tags="Background" id="tmEIZODM_RHfzEJAgpSY-3">
          <mxCell style="verticalAlign=middle;align=center;overflow=width;vsdxID=10740;fillColor=#b1dafb;gradientColor=none;shape=stencil(nZBLDoAgDERP0z3SIyjew0SURgSD+Lu9kMZoXLhwN9O+tukAlrNpJg1SzDH4QW/URgNYgZTkjA4UkwJUgGXng+6DX1zLfmoymdXo17xh5zmRJ6Q42BWCfc2oJfdAr+Yv+AP9Cb7OJ3H/2JG1HNGz/84klThPVCc=);strokeColor=#6b859a;points=[[1,0.5,0],[0.5,0,0],[0.5,0.5,0],[0.5,0.5,0]];labelBackgroundColor=none;rounded=0;html=1;whiteSpace=wrap;" vertex="1" parent="1">
            <mxGeometry x="466" y="850" width="160" height="60" as="geometry" />
          </mxCell>
        </UserObject>
        <UserObject label="&lt;div style=&quot;font-size: 1px&quot;&gt;&lt;/div&gt;" tags="Background" id="tmEIZODM_RHfzEJAgpSY-4">
          <mxCell style="verticalAlign=middle;align=center;overflow=width;vsdxID=10741;fillColor=#ffffff;gradientColor=none;shape=stencil(nZBLDoAgDERP0z3SIyjew0SURgSD+Lu9kMZoXLhwN9O+tukAlrNpJg1SzDH4QW/URgNYgZTkjA4UkwJUgGXng+6DX1zLfmoymdXo17xh5zmRJ6Q42BWCfc2oJfdAr+Yv+AP9Cb7OJ3H/2JG1HNGz/84klThPVCc=);strokeColor=#6b859a;points=[[1,0.5,0],[0.5,0,0],[0.5,0.5,0],[0.5,0.5,0]];labelBackgroundColor=none;rounded=0;html=1;whiteSpace=wrap;" vertex="1" parent="1">
            <mxGeometry x="466" y="910" width="160" height="60" as="geometry" />
          </mxCell>
        </UserObject>
        <UserObject label="&lt;div style=&quot;font-size: 1px&quot;&gt;&lt;p style=&quot;text-align:right;margin-left:0;margin-right:0;margin-top:0px;margin-bottom:0px;text-indent:0;vertical-align:bottom;direction:ltr;&quot;&gt;&lt;font style=&quot;font-size:14.11px;font-family:Segoe UI Semibold;color:#6b859a;direction:ltr;letter-spacing:0px;line-height:120%;opacity:1&quot;&gt;&lt;span&gt;GatewaySubnet&lt;/span&gt;&lt;/font&gt;&lt;font style=&quot;font-size:14.11px;font-family:Segoe UI Semibold;color:#6b859a;direction:ltr;letter-spacing:0px;line-height:120%;opacity:1&quot;&gt;&lt;span&gt;&lt;br&gt;&lt;/span&gt;&lt;/font&gt;&lt;/p&gt;&lt;/div&gt;" tags="Background" id="tmEIZODM_RHfzEJAgpSY-5">
          <mxCell style="verticalAlign=bottom;align=right;overflow=width;vsdxID=10742;fillColor=#f2f2f2;gradientColor=none;shape=stencil(nZBLDoAgDERP0z3SIyjew0SURgSD+Lu9kMZoXLhwN9O+tukAlrNpJg1SzDH4QW/URgNYgZTkjA4UkwJUgGXng+6DX1zLfmoymdXo17xh5zmRJ6Q42BWCfc2oJfdAr+Yv+AP9Cb7OJ3H/2JG1HNGz/84klThPVCc=);dashed=1;dashPattern=1.00 2.00;strokeColor=#6b859a;points=[[1,0.5,0],[0.5,0,0],[0.5,0.5,0],[0.5,0.5,0]];labelBackgroundColor=none;rounded=0;html=1;whiteSpace=wrap;strokeWidth=2;fontStyle=1" vertex="1" parent="1">
            <mxGeometry x="146" y="830" width="200" height="180" as="geometry" />
          </mxCell>
        </UserObject>
        <UserObject label="&lt;div style=&quot;font-size: 1px&quot;&gt;&lt;/div&gt;" tags="Background" id="tmEIZODM_RHfzEJAgpSY-6">
          <mxCell style="verticalAlign=middle;align=center;overflow=width;vsdxID=10743;fillColor=#b1dafb;gradientColor=none;shape=stencil(nZBLDoAgDERP0z3SIyjew0SURgSD+Lu9kMZoXLhwN9O+tukAlrNpJg1SzDH4QW/URgNYgZTkjA4UkwJUgGXng+6DX1zLfmoymdXo17xh5zmRJ6Q42BWCfc2oJfdAr+Yv+AP9Cb7OJ3H/2JG1HNGz/84klThPVCc=);strokeColor=#6b859a;points=[[1,0.5,0],[0.5,0,0],[0.5,0.5,0],[0.5,0.5,0]];labelBackgroundColor=none;rounded=0;html=1;whiteSpace=wrap;" vertex="1" parent="1">
            <mxGeometry x="166" y="850" width="160" height="60" as="geometry" />
          </mxCell>
        </UserObject>
        <UserObject label="&lt;div style=&quot;font-size: 1px&quot;&gt;&lt;/div&gt;" tags="Background" id="tmEIZODM_RHfzEJAgpSY-7">
          <mxCell style="verticalAlign=middle;align=center;overflow=width;vsdxID=10744;fillColor=#ffffff;gradientColor=none;shape=stencil(nZBLDoAgDERP0z3SIyjew0SURgSD+Lu9kMZoXLhwN9O+tukAlrNpJg1SzDH4QW/URgNYgZTkjA4UkwJUgGXng+6DX1zLfmoymdXo17xh5zmRJ6Q42BWCfc2oJfdAr+Yv+AP9Cb7OJ3H/2JG1HNGz/84klThPVCc=);strokeColor=#6b859a;points=[[1,0.5,0],[0.5,0,0],[0.5,0.5,0],[0.5,0.5,0]];labelBackgroundColor=none;rounded=0;html=1;whiteSpace=wrap;" vertex="1" parent="1">
            <mxGeometry x="166" y="910" width="160" height="60" as="geometry" />
          </mxCell>
        </UserObject>
        <UserObject label="&lt;div style=&quot;font-size: 1px&quot;&gt;&lt;font style=&quot;font-size:14.11px;font-family:Segoe UI Semibold;color:#6b859a;direction:ltr;letter-spacing:0px;line-height:120%;opacity:1&quot;&gt;&lt;span&gt; VPN &lt;/span&gt;&lt;/font&gt;&lt;font style=&quot;font-size:14.11px;font-family:Segoe UI Semibold;color:#6b859a;direction:ltr;letter-spacing:0px;line-height:120%;opacity:1&quot;&gt;&lt;span&gt;Gateway&lt;br&gt;&lt;/span&gt;&lt;/font&gt;&lt;/div&gt;" tags="Background" id="tmEIZODM_RHfzEJAgpSY-8">
          <mxCell style="verticalAlign=middle;align=center;overflow=width;vsdxID=10745;fillColor=none;gradientColor=none;shape=stencil(nZBLDoAgDERP0z3SIyjew0SURgSD+Lu9kMZoXLhwN9O+tukAlrNpJg1SzDH4QW/URgNYgZTkjA4UkwJUgGXng+6DX1zLfmoymdXo17xh5zmRJ6Q42BWCfc2oJfdAr+Yv+AP9Cb7OJ3H/2JG1HNGz/84klThPVCc=);strokeColor=none;points=[];labelBackgroundColor=none;rounded=0;html=1;whiteSpace=wrap;fontStyle=1" vertex="1" parent="1">
            <mxGeometry x="226" y="850" width="102" height="60" as="geometry" />
          </mxCell>
        </UserObject>
        <UserObject label="" tags="Background" id="tmEIZODM_RHfzEJAgpSY-9">
          <mxCell style="vsdxID=35;fillColor=none;gradientColor=none;image;aspect=fixed;image=data:image/png,iVBORw0KGgoAAAANSUhEUgAAAgAAAAIACAYAAAD0eNT6AAAAAXNSR0IArs4c6QAAAARnQU1BAACxjwv8YQUAAAAJcEhZcwAAHYcAAB2HAY/l8WUAACmVSURBVHhe7d0ve91Ytifg/poDBhS4oMAFDRo0aNCgwQUFGjRo0KCASYGAgICAAgYBBgYBAQYBBgYGBgEBIb5nOXOmUqoV++hIW9p/3ueZl6z7TLWjI+3105a0958eHx8BgMGkRaANX758eby7u///Pnz48Hj9/v2Td1dXj2/fvl0k/hvH/977g2//tz5//nz4E/K/C6hfWgTqcH//tdlG840mfGzMP//8c1XevHnz9HddX18//Z13d3dPf/f03wPUIy0C24k76WOTP961/3xxkTbaVj3NJrx79//Cwf3jp0+fDv/0/HgA20iLQBnR/KIJ9tro55oGg3ikMT1mQBlpEVgupu9vbm6eGtzr12/SBsgfvXr9+vHy8vLpfQaPEaCctAjME3eut7e3T8/An+7sk8bG+eIdg6urq8ePHz96+RBWkhaB5x0bfjQld/fbi1mCeIwiEMD50iLwexp+3QQCmC8tAo9/ijfV4zn0219/TZsO9YqQFl9VPDw8HH7K/PeF0aVFGFW8dBZ3+XFHmTUW2vPLL788zQ7EDM7094aRpUUYSUwbx1vnFxe/pA2Evvz6669PX2d4VMDo0iL0Lu4Go+mP/h3+6L6GgY/WH2BIaRF6FNP7MRXsTp8/OATBCIQxGzQ9b6BXaRF6ES/yxTP9eA6cDvwwEQExFm+K/Qym5xP0JC1C6+JOLhaPyQZ4OFW8DBrvC3hEQI/SIrQoXuqKlfjc7bO2p1mBqyubGNGVtAgtiWf7Ty/0JQM3rC2WevauAD1Ii1C7mJKNqVnf67OXmGmKXQx9Tkir0iLUKqZgvclPbWIGKnZ/nJ6vULO0CLWJKVe77FG740uD0/MXapQWoQYxtRrruXupj9Z4aZAWpEXYUzT++HbfKn30INYUEASoUVqEPWj89EwQoDZpEbYUb/TH29Re7GMEggC1SIuwBY2fkQkC7C0tQmkfPnzQ+OHi4mn1SksNs4e0CKXEBisW74Hfiy9dYlvi6fUCJaVFWFtMdcbe69ngB3wVG1hZUIitpEVYy9Nz/utrb/bDDLGyoCWGKS0twhpiStMiPnCmQ2iOhbCm1xWsJS3CEnHn8tZ0P6wiHgv4WoAS0iKcK+76vd0PKzMbQAFpEeZy1w/lxRc0XhJkLWkR5nDXD9uKF2un1yHMlRbhFPGGv7t+2EfMBng3gCXSIrwkpiG94Q87u7iwgBBnS4vwnHgZKR2MgF3EvgLT6xRekhYhY8of6uWRAHOlRZgy5Q8N8EiAGdIifOvm5iYfbIAqvbu6Oly6+fUMR2kRjq4OA0k2wAB1i8d10+sZvpUWIcSGJNnAArTh9es3NhXiu9IiY4uX/WL98WxAAdry6tUrLweSSouMKwaKeJs4G0iANsVKnXd3lhDm99IiY3p4eLCkL/Tq4uIQAu4Ol3p+/TOetMh44s5f84fOCQF8Iy0ylqdp/1ev8gED6MtTCPA4AAFgeJo/jCdm++KR33Q8YCxpkTHE2/7xmVA2QAB9EwJIi/RP8wd8Iji2tEj/3r59mw4IwFgiBMQNwXSMoH9pkb7FOuHZQACMKRb+mo4T9C8t0q8PHz6kAwAwtl/tHTCctEif4vvf7MIHCLH513TcoF9pkf7E277x/W920QMcxSzhdPygT2mRvsRuYL71B051e3t7GDry8YR+pEX6Ymc/YJaLi8f7e6sF9i4t0g97+gPniIWCrBHQt7RIH66vr9MLG+AUsTW4NQL6lRZp38ePH9MLGmCOWDRsOr7Qh7RI2+LZnTf+gbXEo8TpOEP70iLtimd2v/xiX39gXfFIcTre0La0SLus8Q+UEouJTccc2pUWadP79+/TixZgDTG7GOuKTMce2pQWaY+V/oAt2DOgH2mR9sTnOtnFCrC2m5uPh2EnH4toR1qkLb73BzZ1cWGRoA6kRdpxd3efX6AABcUS49PxiLakRdoQK3TZ5AfYy/X794ehKB+fqF9apA3v3r1LL0qArdg0qF1pkfpZ6heoQcxCTscn2pAWqVt8h2u1P6AWMRs5HaeoX1qkbm9//TW9CAH2cnt7exie8jGLOqVF6nVzc5NefHCqWC76e+LN7uz/D7zk4sIqga1Ji9QpLi6r/fGcaOKxc1u8nR3rtsdnoktf0or/Rvy34r95dXX19L9h4SkyVglsS1qkTnFxZRcdY4k7rWjCsQDUhw8fnpr8XndesRhM/O/HPhRxfno3BY8C2pEWqc/THv/JxUb/Xr9+8/jucOcdy6+2sPpa/I3xlUrMFnikMJ44X6fnBHVKi9QnLqrsYqMvT3f3hzvpr1P4/XxffZwlEAjGEDNT03OA+qRF6uKb/77F8/S4W+6p4T8nHlfEbMbTIy3vtHQpHgXFSqXT3566pEXq4rlqf+IuP+6SbKjy+Kd4ZhyPOJznfYlQO/2tqUtapB4xbZpdXLQlpvZjsZSYzXFn9H0PDw9PYSCOV3YcaYgdA6uXFqmDz/7aF8+87Z1+njhu3hlom88C65YWqUPcCWUXFXWLqez4RM/dzzriOJoVaJfNguqVFtlfTIVmFxP1irudmOKf/pasx6xAe3wWWK+0yP6s99+GuCuNT/YsgbqtCMgWxmqHYFyntMi+4q3o7CKiIhcXT43fC337EgTaEI/Fpr8d+0uL7Ms66xU7NP74vMkdf11iDYVYHjn9zahCBObp78a+0iL7iW/Ds4uHnWn8TYgg4B2BSh2uIddPXdIi+7EYSn00/vbEYzQzafWxOFBd0iL7sNd/XaKB+ISpbfE5ZvbbspOLi8PPkv9WbC8tsg8b/tQjGsf096FNd3d3lhmuiI2C6pEW2Z43/+vgrr9P8bVGLMWc/eZsyxcB9UiLbM+nTPtz19+/mA2wouD+4oZn+tuwvbTItqz6ty93/WOJFzottLWv+FJj+ruwvbTItqz5vx+blYzLTpv7ihuf6W/CttIi24m7kXgzNrtAKMsnScQSta6/fVxeXh5+gvx3YRtpke3E6ljZxUFZ8cnl9LdgTPH4x3sBO7Aw0O7SItvxedL27M/PVExHCwHbMwu3r7TINiz8sz3Nn+8RArbnk8B9pUW2YeGfbWn+vEQI2J6FgfaTFinPwj/bMshwqlgrIDuHKCNuhKa/AdtIi5Rn4Z/txApw0+MPz7Er57YsDLSPtEhZnz59Si8C1mfBEc4Vn6ll5xTrsx7HPtIiZfn0bxvxgpHPjFjCezrbca1uLy1Sln3KtxHPcqfHHuaI2TovBW7D2hzbS4uUE4uOZCc/64rllafHHs5xd3e4Zq0WWNzbt28Phzv/DSgjLVJO7DiXnfysJ2ZYpscdlvBS4DY8BthWWqScV69epSc+67GzHyXYQbA8jwG2lRYpw/R/eT75o5S4O/U+QFkeA2wrLVKGbX8Ls7kIhT3tHpide6zGNbydtEgZNv4pK/Z3nx5zWJv1AcryGGA7aZH1Pb1JnJzsrMOmImwl7lCF+XI8BthOWmR9pv/LspQoW7KXR1keA2wjLbI+dwzlWO6XPcQLp9n5yHIeA2wjLbIuu4uVFVu4To85lOargHI8BthGWmRd7hTK8dkfe7JAUDkeA5SXFlmXu4RyYq326fGGLXm8V4bHAOWlRdZj+r8cW4hSAy8EluExQHlpkfVcefu/mPi0cnq8YQ+2DS7g4uJwaPPjzTrSIusxMJQRx3V6rGEvlvkuQ8gvKy2yji9fvqQnNcvFkqzT4w17ikdS2bnK+azuWVZaZB2eDZZh1T9qFJ+jZucr5/OeT1lpkXV4/l9GfHo1PdZQA7MA64ovqKbHmPWkRdYRb7FmJzUL2PGPitnzY30W+ionLbKOaFbZCc35YlZlepyhJl78XZf1AMpJiyznTqAMC/9Qu5ubj+m5y3ms9llOWmS56/fv05OZ8716/fpwaPPjDTWxOuB6Xr16dTik+XFmmbTIcp7/r88nQbTi+vo6PYc5j5m/MtIiy3n+vz6DAK2IF1WNAeuJT6qnx5jl0iLLeP6/Pnv+05rLy8v0XGY+L/+WkRZZxhah6zP9T2tsBLYeS3+XkRZZxmIg6/PtPy2yFfh6Ymn16fFlmbTIMi76ddkWlFbFJ2zZOc18NgZaX1rkfNYDX5+FQGiVxwDr8RhwfWmR88UuddnJy/lM/9MyM4LriJcqp8eWZdIi5/P977pM/9M6jwHW4Uug9aVFzucFwHWZ9qN1HgOswzbg60uLnC+Wq81OXs5jJzB64DHAOnwJsK60yPmyk5bz2AucXlgUaB1uCNaVFjnP/b0VANcUj1OmxxhaZHGwdcRL1tNjy/nSIueJz9Wyk5bzxLaq02MMLfJ58Dq8E7SutMh5Yr3q7KTlPDb/oSc2B1runT0BVpUWOY/nfOuxBzi9sUX4cj4LXlda5DzxnWp20jJffDs9Pb7Qsuv379NzndO5MVhXWuQ88Z1qdtIyn/2/6U2c09m5zjzT48r50iLnyU5WzuN7X3oT53R2rjOPd4PWkxaZL07K7GRlvlhMaXp8oQexr312znM6s4PrSYvMF1tVZicr89n0g155UXi5WFNhelw5T1pkvvhmPTtZmc+3vvTKZmHLxefW0+PKedIi80XTyk5W5ovNU6bHF3pgsbDl3lohdDVpkfksArSez58/Hw5pfpyhZR4VLmdb4PWkReaz5/c6bPlJzyLcZuc9p7MWwHrSIvPFtFR2sjKP6T16Z0ngZewSup60yHyW+VyHF3zoXXzmmp37nG56TDlPWmS+mJbKTlTmsd0nvYttrrNzn9N5T2gdaZH5YloqO1GZJ7ZNnR5b6IkXhpezGuA60iLzZScpM11cHA5lfnyhFzYFWu7+/v5wKPPjy+nSIvN4s3cdlgBmBNYCWC4+p5weV+ZLi8xjH4B1+AKAEVg1dLk4htPjynxpkXkEgHXEWgrTYwu9EQCWEwDWkRaZRwBYRzwbnR5b6I3VAJcTANaRFpnHBb0OFzUjMF4sZ6xYR1pkHhf0OrzYwwjiDfbs/Od0AsA60iLzCADr8G0vI/DIcLn4kmJ6XJkvLTKPALCO6XGFHgkAy3lfaB1pkXkEgOXsAsgoBIDlBIB1pEXmub29TU9STmePb0YhACwnAKwjLTJPvJCSnaSc7vLy8nAo8+MLPREAlhMA1pEWmUcAWM4iQIxCAFhOAFhHWmQeAWA5AYBRCADLCQDrSIvMIwAsd319fTiU+fGFnggAywkA60iLzCMALOeCZhQCwHLGi3WkReYRAJZzQTMKAWA548U60iLzCADLWdmLUQgAywkA60iLzCMALBfHcHpcoUcCwHICwDrSIvMIAMsJAIxCAFhOAFhHWmQeAWC5u7u7w6HMjy/0RABYTgBYR1pkHgFgOVsBMwoBYDkBYB1pkXkEgOUEAEYhACwnAKwjLTKPALCcAMAoBIDlBIB1pEXmEQCWEwAYhQCwnACwjrTIPALAcgIAoxAAlhMA1pEWmUcAWE4AYBQCwHICwDrSIvMIAMsJAIxCAFhOAFhHWmQeAWA5AYBRCADLCQDrSIvMIwAsJwAwCgFgOQFgHWmReQSA5QQARiEALCcArCMtMo8AsJwAwCgEgOUEgHWkRea5PgSAf/7ymgXe3dw9fnj4DN27vn14/OniFQtcXgsAa0iLI7v//OXpIr28+/T4+uPD488f7h//eX33+Pd3t49//vUjwNn+6+3Hx//z5oZCfjwc3xirQ4zbr24eHt8eAleM6XefvhyG+HzcH1VaHMXDly+P1/efn06SOFn+cplftABL/fdB1rTY1p8P4/y/398/BYPbwUNBWuxZNPy4q3dHD2zph6QZsb8f3t48/s/V3eObjw+PMQM87Rk9S4s9iZ/z6u7T438Oic8dPrCHmJrOmg/1+evl7VMYiBnib3tJj9JiDyLJ/XLzoOkDuzL1366YKb68/XRoKXmfaV1abFk804m7/exCBNhaTDFnzYV2RIjrMQikxRbFG57xIl92AQLs4ceDrKHQpt6CQFpsSbyzEVP92cUHsKf/mzQR2hdfEtw8fD60oLwvtSIttuLXQxL7m7f5gQqZ+u/fxc3949Orgkl/akFarF0ccM/5gVp58W8c8VvHQkPf9qhWpMWaxdv98c1mdtEB1MDU/3hiYaFpv6pdWqxVpKz4RjO74ABqYLnfccXM9LRv1Swt1ijW5s8uNoBamPon1g74uqBg3stqkhZro/kDLTD1T4iZ6hZeDkyLNdH8gRaY+udb8a5a7SEgLdYiNu7JLjSAmpj6JxO7Dk77Wk3SYg3ibX8v/AEtsNMf3xO7z077Wy3S4t5i2uQfV5o/UD87/fGS9/d1rhOQFvdmkR+gBTH178U/XhIhscbthdPinmJ53+xCA6iN5X45VbwUOO13e0uLe4mEZG1/oAV2+mOu2lYLTIt7iZclsgsNoDam/pkrHgXU9GlgWtxDbK2YXWQAtTH1z7lq+iogLe7BBj9AC3zzzxIxc1TLC4FpcWsW/AFaYeqfpWqZBUiLW3P3D7TAcr+soZZZgLS4Jc/+gRaY+mdNFzf7zwKkxS3FWsnZxQZQE1P/rKmGLwLS4lZivf/sQgPK+ce728efPHabxXK/lLD3ugBpcStvPj6kFxtQRjT/h0PwPvw/IeBEpv4pJRa+m/bFLaXFrfx0bQCCrRyb//H6EwJOY6c/StrzZcC0uAXT/7CdafM/EgKeZ+qf0i5vP/3hutxKWtyC6X/Yxvea/5EQkLPTH1vYc5OgtLiFf5r+h+Jeav5HQsAfWe6XLUTIfLpCk+uytLRYWvxj/3KZX3TAOk5t/kdCwG/s9MeWPjx8PlyC+XVZUlosLf6x2UUHrGNu8z8SAr4y9c+WXt3s8zlgWiwt/rHZRQcsd27zPxo9BFjul639/XDNTq/DLaTF0qz9D2Usbf5Ho4YA3/yzh5hxml6DW0iLpXn+D+tbq/kfjRgCTP2zl9tP6127p0qLJd0d/pHZhQecb+3mfzRSCDD1z572WA8gLZZk739YV6nmfzRCCDD1z9722B0wLZZkASBYT+nmf9R7CLDcL3uLpfGn111pabGk/9j+F1axVfM/6jUEWO6XGvz1cvsvAdJiSVYAhOW2bv5HvYUAU//UYo8vAdJiSXYAhGX2av5HPYUAy/1Sk6erOrnmSkmLJcWCB9mFCLxs7+Z/1EMIMPVPbWKX3Om1VlJaLOlvAgCcpZbmf9R6CPDNP7XpPgBkFyLwvNqa/1GrIcDUPzXaelOgtFhSdjEC31dr8z9qLQR48Y9adR0AYnojuyCBXO3N/6ilEGDqn1pd3W27GmBaLEUAgNO10vyPWggBlvulZlsvB5wWS4npjeyiBH6vteZ/VHMIMPVP7d7ePhwuo/zaKiEtliIAwMtabf5HtYYAU//U7tVNxwHg8u5TemECX7Xe/I9qCwGm/mmBAACD6qX5H9USAkz90woBAAbUW/M/qiEE2OmPVggAMJhem//RniHAcr+0RACAgfTe/I/2CAGm/mmNAACDGKX5H20dAiz3S2sEABjAaM3/aKsQ8ONBNsBCzQQA6Nyozf9oixDgm39aJABAx0Zv/kclQ4Cpf1olAECnNP/fKxECvPhHywQA6JDmn1s7BJj6p2UCAHRG83/eWiHAcr+0TgCAjmj+p1kaAkz90wMBADqh+c+zJASY+qcHAgB0QPM/zzkhwNQ/vRAAoHGa/zJzQoCpf3oiAEDDNP91nBoC7PRHTwQAaJTmv66XQoCd/uiNAAAN0vzL+F4IiKl/L/7RGwEAGqP5l5WFAMv90iMBABqi+W/j2xBgpz96JQBAIzT/bR1DgKl/eiUAQAM0/33EIf/r5W06eELrBAConOa/LyGAXgkAUDHNvw5CAD0SAKBSmn9dhAB6IwBAhTT/OgkB9EQAgMpo/nUTAuiFAAAV0fzbIATQAwEAKqH5t0UIoHUCAFRA82+TEEDLBADYmebfNiGAVgkAsCPNvw9CAC0SAGAnmn9fhABaIwDATi4+3D++/fhQrff3nw+XUX5t7SH+nuzvXOLNQQyCa/n58JtmAy3UKM7Z6XVWUlosRQCA80VAmV5Te4q/J/s7l7DTHyMTAIBU7wHgv97a55+xCQBAqucA8N8H2YAIIxEAgFTPAcDUPwgAwHf0GgBM/cNXAgCQ6jEAmPqH3wgAQKrHAPBDMgjCqAQAINVbAPjR1D/8jgAApHoKAKb+4Y8EACDVUwD44W0+AMLIBAAg1UsAMPUPOQEASPUSAHzzDzkBAEj1EABM/cP3CQBAqvUA4MU/eJ4AQJNiL/3YzjX7v7GO1gOAqf/5oiEITuMQAGhSBID4jYWAcloOAJb7ne/YDASAcQgANOkYAIIQUEarAUADm+/bRuD4jUMAoEnfBoAgBKyv1QBg6n+eaRMQAMYhANCkaQAIQsC6WgwApv7nyRqAADAOAYAmZQEgCAHraS0AaFzzfG/wdxzHIQDQpO8FgCAErKO1AGCnv9M9N/ALAOMQAGjScwEgCAHLtRQALPd7upcGfQFgHAIATXopAAQhYJlWAoCGdbpTBnzHcxwCAE06JQAEIeB8rQQAy/2e5tTBXgAYhwBAk04NAEEIOE8LAeDHg2xg4/fmDPQCwDgEAJo0JwAEIWC+FgKAb/5fNneQFwDGIQDQpLkBIAgB89QeAEz9v+ycAV4AGIcAQJPOCQBBCDhdzQFAk3rZuYO7YzsOAYAmnRsAghBwmpoDgKn/5y0Z2AWAcQgANGlJAAhCwMtqDQCW+33e0kFdABiHAECTlgaAIAQ8r8YAoDk9b40B3TEehwBAk9YIAEEI+L4aA4Cp/+9bazAXAMYhANCktQJAEAJytQWAnw9/TzaIse5ALgCMQwCgSWsGgCAE/FFtAeDf7+/SQWx0aw/iAsA4BACatHYACELA79UWAP4lAPxBiQFcABiHAECTSgSAIAT8RgCoW6nBWwAYhwBAk0oFgCAEfCUA1KvkwC0AjEMAoEklA0AQAgSAWpUetAWAcQgANKl0AAijhwABoD5bDNgCwDgEAJq0RQAII4cAAaAuWw3WAsA4BACatFUACKOGAAGgHlsO1ALAOAQAmrRlAAgjhgABoA5bD9ICwDgEAJq0dQAIo4WAn67uHuPfvLUYlDJ/vbxNB7Gexb97eh6WJgCMY+vzKy2WIgD0a48AEKJBZX8P67DT32/2aP5BABiHAECT9goAQQgoQ+P5zV7NP/gdxiEA0KQ9A0AQAtZnp7+v9mz+QQAYhwBAk/YOAEEIWM+Ppv6f7N38gwAwDgGAJtUQAIIQsJyG81UNzT/4PcYhANCkWgJAEAKW+SEZmEZTS/MPAsA4BACaVFMACELAeUz919X8gwAwDgGAJtUWAIIQMN/oL/7V1vyDADAOAYAm1RgAghBwuh/e5oPSKGps/kEAGIcAQJNqDQBBCHjZ6E2m1uYfBIBxCAA0qeYAEISA54089V9z8w8CwDgEgA5EM4yGM5LL20+Hnzj/3WsRf2f2e41u5OV+a2/+4c3hvI2/cyQj7jMR4t8+/f1LSouljBIA/nV9d/jn5seAfQkBvzfy3eXWgy2ns9PkNtJiKQIANRACfjPq1L/mXzcBYBtpsRQBgFoIAeNO/Wv+9RMAtpEWSxEAqMnIIWDUqX/Nvw0CwDbSYikCALUZNQSMuNyv5t8OAWAbabEUAYAajRYCRlzuV/NviwCwjbRYigBArUYJASNO/Wv+7REAtpEWSxEAqNkIIWC05X41/zYJANtIi6UIANSu5xDw40E26PRK82+XALCNtFiKAEALeg0BI33zr/m3TQDYRlosRQCgFb2FgJGm/jX/9gkA20iLpQgAtKSXEDDSi3+afx8EgG2kxVIEAFrTQwgYZepf8++HALCNtFiKAECLWg4Boyz3q/n3RQDYRlosRQCgVS2GgFGm/jX//ggA20iLpQgAtKy1EDDC1L/m3ycBYBtpsRQBgJa1FABGmPrX/PslAGwjLZYiANCqlpq/qX9aJwBsIy2WIgDQotam/kfa6U8I6JMAsI20WIoAQGtaa/52+qMHAsA20mIpAgAtaa35j7jT35EQ0BcBYBtpsRQBgFa01vzDaDv9TQkB/RAAtpEWSxEAaEGLzX+0nf6+RwjogwCwjbRYigBA7Vps/mGknf5eIgS0TwDYRlosRQCgZq02/9Gn/jNCQNsEgG2kxVIEAGrVavMf+cW/lwgB7RIAtpEWSxEAqFGrzT+Y+n+eENAmAWAbabEUAYDatNz8R9npbykhoD0CwDbSYikCADVpufmb+p9HCGiLALCNtFiKAEAtWm7+wdT/fEJAOwSAbaTFUgQAatB68zf1fz4hoA0CwDbSYikCAHtrvfmb+l9OCKifALCNtFiKAMCeWm/+YaSd/koSAuomAGwjLZYySgD46+XtUwgYyc8f7g8/cf6716CH5j/iTn8lCQH1EgC2kRZLGSUAjOgf724PP3H+u++th+YfU/9e/FtfCyHgn4eA/ffD9TWSUcOuAECTag0APTT/YLnfcmoPAd77GIcAQJNqDAC9NH87/ZVXcwgQAMYhANCk2gJAL80/mPrfRq0hQAAYhwBAk2oKAD01f9/8b6vGECAAjEMAoEm1BICemr+Bfx+1hQDnwTgEAJpUQwDoqfkHU//7qSkECADjEABo0t4BoLfmb+p/f7WEAAFgHAIATdozAPTW/A349aghBDgfxiEA0KS9AkBvzT+Y+q/L3iFAABiHAECT9ggAPTZ/y/3Wac8QIACMQwCgSVsHgB6bv4G+bnuFAOfFOAQAmrRlAOix+QfL/dZvjxAgAIxDAKBJWwWAXpv/KVP/sctkDBC1iL8n+zt7F//26XlZkgAwjq3PrbRYigDQry0CQK/NP5zy4l9skTo9JnsadcvWsOVALQCMQwCgSaUDQM/N/9SpfwGgLlsN1gLAOAQAmlQyAPTc/OcM7gJAfbYYsAWAcQgANKlUAOi5+Yc53/wLAHUqPWgLAOMQAGhSiQDQe/Ofu9yvAFCvkgO3ADAOAYAmrR0Aem/+5wzqAkDdSg3eAsA4BACatGYA6L35h3OW+xUA6ldiABcAxiEA0KS1AsAIzf/cnf4EgDasPYgLAOMQAGjSGgFghOa/ZDAXANqx5kAuAIxDAKBJSwPACM0//JBc9KcSANqy1mAuAIxDAKBJSwLAKM1/6U5/AkB71hjQBYBxCAA06dwAMErzX2MQFwDatHRQFwDGIQDQpHMCwCjNP6yx058A0K4lA7sAMA4BgCbNDQAjNf8fD7KLfS4BoG3nDu4CwDgEAJo0JwCM1PzDOd/8ZwSA9p0zwAsA4xAAaNKpAWC05r/G1P+RANCHuYO8ADAOAYAmnRIARmv+aw/cAkA/5gz0AsA4BACa9FIAGK35h7Wm/o8EgL6cOtgLAOMQAGjScwFgxOZ/7nK/zxEA+nPKgC8AjEMAoEnfCwAjNv9SA7YA0KeXBn0BYBwCAE3KAsCIzT+sPfV/JAD067mBXwAYhwBAk6YBYNTmX2Lq/0gA6Nv3Bn8BYBwCAE36NgCM2vxLD9QCQP+yBiAAjEMAoEnHADBq8w9Ldvo7hQAwhmkTEADGIQDQpAgAIzf/pTv9nUIAGMe3jUAAGIcAAI2JAbrUi3/fEgDGcmwGAsA4BABozJrL/T5HABhPNAQBYBwCADRkrZ3+TiEAQN8EAGjIFlP/RwIA9E0AgEZsNfV/JABA3wQAaMAez2UFAOibAAAN2HLq/0gAgL4JAFC5ksv9PkcAgL4JAFCxPT/JEgCgbwIAVGyPqf8jAQD6JgBApfaa+j8SAKBvAgBUqIbV2AQA6JsAABUqvdPfKQQA6JsAAJXZYqe/UwgA0DcBACoSU/97vvj3LQEA+iYAQEW2Xu73OQIA9E0AgB28Plx4bz/+3puDuCBrcXW4fqbX1J7i78n+ztr8/OE+HWyhNnG+Tq+zktJiKQIAtfrp6u7x85fDWZqct7QrftO/Xt6mgy3URgCAnQgBfdH8aY0AADsSAvqg+dMiAQB29rd3t0JAwzR/WiUAwI6Oy/1GAxEC2qP50zIBAHYyXe5XCGiL5k/rBADYSbbcrxDQBs2fHggAsIPnlvsVAuqm+dMLAQA2dspOf0JAnTR/eiIAwMZOXe5XCKiL5k9vBADY0Nyd/oSAOmj+9EgAgA2ds9OfELAvzZ9eCQCwkSU7/QkB+9D86ZkAABs45cW/lwgB29L86Z0AABs4Z+o/IwRsQ/NnBAIAFHZc7nctQkBZmj+jEACgoDWm/jNCQBmaPyMRAKCgtab+M0LAujR/RiMAQCFrT/1nhIB1aP6MSACAAkpN/WeEgGU0f0YlAEAB2U5/JQkB59H8GZkAACubu9zvWoSAeTR/RicAwIq2nPrPCAGn0fxBAIBVLVnudy1CwPM0f/hKAICV/HiQXWR7EAJymj/8RgCAlZT85v8cQsDvaf7wewIArKCGqf+MEPCV5g9/JADAQnu/+PeS0UOA5g85AQAWqm3qPzNqCND84fsEAFhgi+V+1zJaCND84XkCAJyp9qn/zCghQPOHlwkAcKYWpv4zvYcAzR9OIwDAGVqa+s/0GgI0fzidAAAztTj1n+ktBGj+MI8AADNtvdNfSb2EAM0f5us6AFwJAKxsr53+Smo9BGj+cJ6uA8CHh8/pIA7niKn/Vl/8e0mrIUDzh/Nd3n46XEb5tVVCWixFAGBNtS73u5bWQoDmD8sIAHCCmnb6K6mVEKD5w3LRI6fXVklpsZS7T1/SwRzm6nXqP1N7CND8YR1dB4AYw7LBHObofeo/U2sI0PxhPfdfL/L0WishLZb0t3e36aAOp+jlm/9z1BYCNH9YV/cB4H+u7tKBHU4x0tR/ppYQoPnD+qbXWWlpsaR/v79PB3Z4SevL/a5l7xCg+UMZ02uttLRY0i83D+ngDs8Zeeo/s1cI0PyhjD9ffjxcYvl1V0paLMlqgJxj9Kn/zNYhQPOHcn66vjtcZvm1V0paLMmngMzV43K/a9kqBGj+UNbrjZcBDmmxtL9c5gM9TJn6f1npEKD5Q3kxOz699kpLi6XFVEc22MNUTzv9lVQqBGj+sI2HL08XcHodlpIWS4sdj7LBHr5l6n+etUOA5g/biMXNptffFtJiafYE4CU97/RX0lohQPOH7cT6ONNrcAtpsbQYn7wHwHNGXO53LUtDgOYP2/r5w/3h0suvx5LS4hb+5T0AvmOUnf5KOjcEaP6wvXc7vAAY0uIW3t56D4Ccqf91zA0Bmj/s4/bT04WaXpclpcUtxBuPHgMwZbnfdZ0aAjR/2Ee87zS9HreSFrfyH/sC8A3f/JfxUgjQ/GE/0Qen1+RW0uJWfA3At0z9l/O9EKD5w76iD06vy62kxS3ZHphg6r+8aQjQ/GFf8bXT10vyj71xC2lxS14GxNT/do4hQPOH/cX2+NOeuKW0uKUYiLwMODbL/W4rGr/mD/u72XH6P6TFrV188DLgqCz3C4woQvi0F24tLW4tvoHMmgN9M/UPjOrNx+23/51Ki3uwQ+B4LPcLjCi+ePr2hdy9pMU9xLOQrEnQJ1P/wKj2Wvt/Ki3uxbsA4/DNPzCiGPv22Ps/kxb3Eofkb+9u04ZBP0z9A6Oq5e4/pMU9vb/3KKBnXvwDRlXT3X9Ii3uzR0C/TP0Do6rhzf9vpcW9RUKKbySzBkK7LPcLjCoeb0973d7SYg0u7z6lTYQ2mfoHRhUzn3c77fn/nLRYi39aG6Abpv6BUb26qWvq/ygt1uL+85fHv/sqoHmm/oFRRQ/7uuZP3uf2lBZrEssE2yyoXab+gVHF+FfDin/fkxZrc+3TwGbZ6Q8YUTz2jBvYaT+rSVqsUXw+kTUY6mW5X2BUV3efDq0r72e1SIu1ensrBLTC1D8wqsvb+pt/SIs183lgGyz3C4wmpv1buPM/Sou1i3cCvBhYrx8PsosDoFfR/GMp+2m/qllabEFsH+wTwTr55h8YSTzyjJ407VO1S4utiM8r/m3fgKqY+gdG8tP1XdWf+j0nLbbGFwJ18OIfMJLXla7wd6q02KJYZ9nSwfsy9Q+MIB4/17i2/1xpsWXxBmbsupQ1KMqx3C/Qu5jlbOkt/5ekxdbF85jXHx9sKbwRU/9Az2KMi0fNXx/1532nRWmxF/FjxboB/7gSBEoy9Q/06H+u7rq6459Kiz2K7zN//nDv8cDKTP0DPYmZ44ub+8fYjXbaR3qTFnsXGzTE/syR7rKmxmlM/QOtiz1L4nPyd4c7/Ycv/Tf9b6XF0cQCDvGoIN4biC8JgpUGX2anP6AF0eTjzf0QN3+xVv+Hw7jf2zP9udIiANCzxz/9LyirDgax+skvAAAAAElFTkSuQmCC;strokeColor=none;points=[];labelBackgroundColor=none;rounded=0;html=1;whiteSpace=wrap;" vertex="1" parent="1">
            <mxGeometry x="179" y="861" width="39" height="39" as="geometry" />
          </mxCell>
        </UserObject>
        <UserObject label="&lt;div style=&quot;font-size: 1px&quot;&gt;&lt;p style=&quot;text-align:right;margin-left:0;margin-right:0;margin-top:0px;margin-bottom:0px;text-indent:0;vertical-align:bottom;direction:ltr;&quot;&gt;&lt;font style=&quot;font-size:14.11px;font-family:Segoe UI Semibold;color:#6b859a;direction:ltr;letter-spacing:0px;line-height:120%;opacity:1&quot;&gt;&lt;span&gt;Spoke vNet&lt;/span&gt;&lt;/font&gt;&lt;font style=&quot;font-size:14.11px;font-family:Segoe UI Semibold;color:#6b859a;direction:ltr;letter-spacing:0px;line-height:120%;opacity:1&quot;&gt;&lt;span&gt;&lt;br&gt;&lt;/span&gt;&lt;/font&gt;&lt;/p&gt;&lt;/div&gt;" tags="Background" id="tmEIZODM_RHfzEJAgpSY-10">
          <mxCell style="verticalAlign=bottom;align=right;overflow=width;vsdxID=10750;fillColor=#feffff;gradientColor=none;shape=stencil(nZBLDoAgDERP0z3SIyjew0SURgSD+Lu9kMZoXLhwN9O+tukAlrNpJg1SzDH4QW/URgNYgZTkjA4UkwJUgGXng+6DX1zLfmoymdXo17xh5zmRJ6Q42BWCfc2oJfdAr+Yv+AP9Cb7OJ3H/2JG1HNGz/84klThPVCc=);dashed=1;dashPattern=1.00 2.00;strokeColor=#6b859a;points=[[1,0.5,0],[0.5,0,0],[0.5,0.5,0],[0.5,0.5,0]];labelBackgroundColor=none;rounded=0;html=1;whiteSpace=wrap;strokeWidth=2;fontStyle=1" vertex="1" parent="1">
            <mxGeometry x="766" y="810" width="220" height="240" as="geometry" />
          </mxCell>
        </UserObject>
        <UserObject label="" tags="Background" id="tmEIZODM_RHfzEJAgpSY-11">
          <mxCell style="vsdxID=10752;fillColor=#fbe5d5;gradientColor=none;shape=stencil(rVFbDsIgEDwNnyQU4glqvcfGblsilmZBS28vZGMsxg9j/JvZmX1kR5g2TLCg0CpE8hdcbR8nYY5CaztPSDZmJEwnTDt4wpH8be6ZL1CcBV39vUxI3KdKh1YbswPTEzuBzlmiVGmKau9zUKM+jlJJQrJBko8QrZ+rrQ5oRJnXyMHBWElhRVx25ebnw/5zVvPFWRm83jxY5zilvf4eSy5xpKZ7AA==);strokeColor=#ed7d31;points=[[0.5,0,0],[0.5,0.5,0],[0.5,0.5,0],[0.5,0.5,0],[1,0.5,0],[0.15,0.85,0],[0.85,0.85,0],[0.85,0.15,0],[0.15,0.15,0]];labelBackgroundColor=none;rounded=0;html=1;whiteSpace=wrap;" vertex="1" parent="1">
            <mxGeometry x="527" y="919" width="40" height="40" as="geometry" />
          </mxCell>
        </UserObject>
        <mxCell id="tmEIZODM_RHfzEJAgpSY-12" value="&lt;div style=&quot;font-size: 1px&quot;&gt;&lt;font style=&quot;font-size:14.11px;font-family:Segoe UI Semibold;color:#ed7d31;direction:ltr;letter-spacing:0px;line-height:120%;opacity:1&quot;&gt;&lt;b&gt;2&lt;br/&gt;&lt;/b&gt;&lt;/font&gt;&lt;/div&gt;" style="text;vsdxID=10752;fillColor=none;gradientColor=none;strokeColor=none;points=[[0.5,0,0],[0.5,0.5,0],[0.5,0.5,0],[0.5,0.5,0],[1,0.5,0],[0.15,0.85,0],[0.85,0.85,0],[0.85,0.15,0],[0.15,0.15,0]];labelBackgroundColor=none;rounded=0;html=1;whiteSpace=wrap;verticalAlign=middle;align=center;overflow=width;;html=1;" vertex="1" parent="tmEIZODM_RHfzEJAgpSY-11">
          <mxGeometry x="2.5" y="5" width="35" height="30" as="geometry" />
        </mxCell>
        <UserObject label="" tags="Background" id="tmEIZODM_RHfzEJAgpSY-13">
          <mxCell style="vsdxID=10753;fillColor=#fbe5d5;gradientColor=none;shape=stencil(rVFbDsIgEDwNnyQU4glqvcfGblsilmZBS28vZGMsxg9j/JvZmX1kR5g2TLCg0CpE8hdcbR8nYY5CaztPSDZmJEwnTDt4wpH8be6ZL1CcBV39vUxI3KdKh1YbswPTEzuBzlmiVGmKau9zUKM+jlJJQrJBko8QrZ+rrQ5oRJnXyMHBWElhRVx25ebnw/5zVvPFWRm83jxY5zilvf4eSy5xpKZ7AA==);strokeColor=#ed7d31;points=[[0.5,0,0],[0.5,0.5,0],[0.5,0.5,0],[0.5,0.5,0],[1,0.5,0],[0.15,0.85,0],[0.85,0.85,0],[0.85,0.15,0],[0.15,0.15,0]];labelBackgroundColor=none;rounded=0;html=1;whiteSpace=wrap;" vertex="1" parent="1">
            <mxGeometry x="227" y="919" width="40" height="40" as="geometry" />
          </mxCell>
        </UserObject>
        <mxCell id="tmEIZODM_RHfzEJAgpSY-14" value="&lt;div style=&quot;font-size: 1px&quot;&gt;&lt;font style=&quot;font-size:14.11px;font-family:Segoe UI Semibold;color:#ed7d31;direction:ltr;letter-spacing:0px;line-height:120%;opacity:1&quot;&gt;&lt;b&gt;1&lt;br/&gt;&lt;/b&gt;&lt;/font&gt;&lt;/div&gt;" style="text;vsdxID=10753;fillColor=none;gradientColor=none;strokeColor=none;points=[[0.5,0,0],[0.5,0.5,0],[0.5,0.5,0],[0.5,0.5,0],[1,0.5,0],[0.15,0.85,0],[0.85,0.85,0],[0.85,0.15,0],[0.15,0.15,0]];labelBackgroundColor=none;rounded=0;html=1;whiteSpace=wrap;verticalAlign=middle;align=center;overflow=width;;html=1;" vertex="1" parent="tmEIZODM_RHfzEJAgpSY-13">
          <mxGeometry x="2.5" y="5" width="35" height="30" as="geometry" />
        </mxCell>
        <UserObject label="&lt;div style=&quot;font-size: 1px&quot;&gt;&lt;p style=&quot;text-align:left;margin-left:0;margin-right:0;margin-top:0px;margin-bottom:0px;text-indent:0;vertical-align:middle;direction:ltr;&quot;&gt;&lt;font style=&quot;font-size:14.11px;font-family:Segoe UI Semibold;color:#6b859a;direction:ltr;letter-spacing:0px;line-height:120%;opacity:1&quot;&gt;&lt;b&gt;Azure Firewall&lt;br/&gt;&lt;/b&gt;&lt;/font&gt;&lt;/p&gt;&lt;/div&gt;" tags="Background" id="tmEIZODM_RHfzEJAgpSY-15">
          <mxCell style="verticalAlign=middle;align=left;overflow=width;vsdxID=10771;fillColor=none;gradientColor=none;shape=stencil(nZBLDoAgDERP0z3SIyjew0SURgSD+Lu9kMZoXLhwN9O+tukAlrNpJg1SzDH4QW/URgNYgZTkjA4UkwJUgGXng+6DX1zLfmoymdXo17xh5zmRJ6Q42BWCfc2oJfdAr+Yv+AP9Cb7OJ3H/2JG1HNGz/84klThPVCc=);strokeColor=none;points=[];labelBackgroundColor=none;rounded=0;html=1;whiteSpace=wrap;" vertex="1" parent="1">
            <mxGeometry x="534" y="849" width="91" height="60" as="geometry" />
          </mxCell>
        </UserObject>
        <UserObject label="" tags="Background" id="tmEIZODM_RHfzEJAgpSY-16">
          <mxCell style="vsdxID=10772;fillColor=none;gradientColor=none;strokeColor=none;spacingTop=-3;spacingBottom=-3;spacingLeft=-3;spacingRight=-3;points=[];labelBackgroundColor=none;rounded=0;html=1;whiteSpace=wrap;" vertex="1" parent="1">
            <mxGeometry x="697" y="837" width="43" height="25" as="geometry" />
          </mxCell>
        </UserObject>
        <mxCell id="tmEIZODM_RHfzEJAgpSY-17" style="vsdxID=10773;fillColor=#3999c6;gradientColor=none;shape=stencil(lZRNcsIwDIVPk63Glvy7pnAPpoSSKSVMCC3cvk5tguW0KeyMeM/6FD+7osVptz7WFYpT37Xv9Vez6XcVvVSIzWFXd00fVhUtK1ps265+69rzYRN/H9eDclh9tJ/DDpfo8wacH1worrGiEZT8qayi4fXcRYeMAilEMqSCFmDSHhdM23ogl1SppCx4SiqaNk8lZQBZ931zyHCdBM9xadz2V4NU4CUzSLA4O54Ex+cTfDYLSvPRBB9LAWk+VdmTM2b6BxEBFUekkelGGc4EOeX4ZWdA5z+mVaCJkU6Oq0S1FkzBmgcBpyqchoqm7emPsHJgAskP3yMIO8dbRNsT2CLagnOGDGvNObOut6A7QPcMZqkvMe9neS1v5Y0z5FgWVzDcSmM4q6Sx9CCsEyCR0Zr/8ppbZOkZgXMVTlU0qmwR2qCiGeAHnrinDWFxf1G3zX4fH+T8//IFDqX4etPyGw==);strokeColor=none;spacingTop=-3;spacingBottom=-3;spacingLeft=-3;spacingRight=-3;points=[];labelBackgroundColor=none;rounded=0;html=1;whiteSpace=wrap;" vertex="1" parent="tmEIZODM_RHfzEJAgpSY-16">
          <mxGeometry x="29" width="13" height="25" as="geometry" />
        </mxCell>
        <mxCell id="tmEIZODM_RHfzEJAgpSY-18" style="vsdxID=10774;fillColor=#3999c6;gradientColor=none;shape=stencil(lZTRdoMgDIafxtscSAThuuveo2e10zNXe6zd2rcfHqgS2Ox6h/EP+RJ+KGhzbnanukBxHof+o/5u92NT0EuB2B6bemhHtypoW9Dm0A/1+9Bfjnv/fdpNymn12X9NO1x9HoGUUxKKmw8ohNJHXr3+7TL4BOkFIsjDpxKgrQ9dMShAYxCFSFmBpSCirHCIlBqQVe7aY0QqDQiOSvOuvyYYBcKyBAkVrrVmDCDvTvDOLIJSvDXB27IKtOJ9pVU5ZZzwP0proNIck6BUCakFMpx0Hu8a7PpI3R4VP4Ps0FJax5bAxmbATIS5rSgvTn+YNZmtBsMd4A5QVGu4UiT+tgRV4u9Fg3Oduy3m0UalaT43NE/BpgmZExa2W8p/h3WeNsltdN7QmuMaDVQ+heuuoyaGqx/ONkqRac4y3UiFuYpmlUjMoNcv2uOX7lm9WyzP6qHtOv8qx//TZ9iF/BNO2x8=);strokeColor=none;spacingTop=-3;spacingBottom=-3;spacingLeft=-3;spacingRight=-3;points=[];labelBackgroundColor=none;rounded=0;html=1;whiteSpace=wrap;" vertex="1" parent="tmEIZODM_RHfzEJAgpSY-16">
          <mxGeometry width="13" height="25" as="geometry" />
        </mxCell>
        <mxCell id="tmEIZODM_RHfzEJAgpSY-19" style="vsdxID=10775;fillColor=#7fba00;gradientColor=none;shape=stencil(jZLREoIgEEW/hlcGFxV8NvsPJzWZTB3Usr9PZmkUKuttd7nL4Q6X8HSo874kwIZRd5fyroqxJvxAAFRbl1qNS0V4Rnhadbo8625qC+z73ChNde1u5oYZ9wLGzA6wB/YRtkfUniaN4sBX24GQVCQ4msGOYhoKqwJvbeaWEqwa7mq+kGFzq/+YF5m5VBFREbtc5jL3zXpWIaQQukBgNEpc6G+ju0zJqJQu1zO5fgG8v4v7mo9GG9X+nYClWKNTqabB5G3P/agtI4wpz54=);strokeColor=none;spacingTop=-3;spacingBottom=-3;spacingLeft=-3;spacingRight=-3;points=[];labelBackgroundColor=none;rounded=0;html=1;whiteSpace=wrap;" vertex="1" parent="tmEIZODM_RHfzEJAgpSY-16">
          <mxGeometry x="10" y="9" width="5" height="5" as="geometry" />
        </mxCell>
        <mxCell id="tmEIZODM_RHfzEJAgpSY-20" style="vsdxID=10776;fillColor=#7fba00;gradientColor=none;shape=stencil(jZLRDoIwDEW/Zq/LaIHJM+p/EBmyiEAGKP69kM7ApqJvbXe7s5tdhmlXZq1iILreNBd113lfMtwzAF2Xyuh+qhgeGKZFY9TZNEOdU99ms3Kurs1tvmGkvUCIeQfEg/qI2iNpT4MhceCr7UDuuExoNIIdxTyUVgXe2oiWEiwadDVfyLC61X/Miyxcqoy4jF2ucJnbZj2rEHIIXSAgj9CF/ja6yZQJDwOX65lcvgDe34W+5qPRStd/J2AqlugUuqooeetzP2rTiGKKhyc=);strokeColor=none;spacingTop=-3;spacingBottom=-3;spacingLeft=-3;spacingRight=-3;points=[];labelBackgroundColor=none;rounded=0;html=1;whiteSpace=wrap;" vertex="1" parent="tmEIZODM_RHfzEJAgpSY-16">
          <mxGeometry x="18" y="9" width="5" height="5" as="geometry" />
        </mxCell>
        <mxCell id="tmEIZODM_RHfzEJAgpSY-21" style="vsdxID=10777;fillColor=#7fba00;gradientColor=none;shape=stencil(vVHLDsIgEPwajiQI6RfU+h8bu22JCGRB2/69kG1iazx58DazM/vIjjBtmiCi0CplCjecbZ8nYc5Ca+snJJsLEqYTph0C4Ujh4XvmEaqzont41gkL96naodXKrGF6YSfQtUi0OXXDVlqPfJNP6usotUhYbJIUMmQb/GGrAxpRljVycDBuc1hKM2LclX8/7H9nFfB+82Cd45T2+mcspcSRmu4F);strokeColor=none;spacingTop=-3;spacingBottom=-3;spacingLeft=-3;spacingRight=-3;points=[];labelBackgroundColor=none;rounded=0;html=1;whiteSpace=wrap;" vertex="1" parent="tmEIZODM_RHfzEJAgpSY-16">
          <mxGeometry x="27" y="9" width="5" height="5" as="geometry" />
        </mxCell>
        <UserObject label="&lt;div style=&quot;font-size: 1px&quot;&gt;&lt;font style=&quot;font-size:14.11px;font-family:Segoe UI Semibold;color:#6b859a;direction:ltr;letter-spacing:0px;line-height:120%;opacity:1&quot;&gt;&lt;b&gt;Virtual&lt;/b&gt;&lt;/font&gt;&lt;font style=&quot;font-size:14.11px;font-family:Segoe UI Semibold;color:#6b859a;direction:ltr;letter-spacing:0px;line-height:120%;opacity:1&quot;&gt;&lt;b&gt;&lt;br/&gt;&lt;/b&gt;&lt;/font&gt;&lt;font style=&quot;font-size:14.11px;font-family:Segoe UI Semibold;color:#6b859a;direction:ltr;letter-spacing:0px;line-height:120%;opacity:1&quot;&gt;&lt;b&gt;N&lt;/b&gt;&lt;/font&gt;&lt;font style=&quot;font-size:14.11px;font-family:Segoe UI Semibold;color:#6b859a;direction:ltr;letter-spacing:0px;line-height:120%;opacity:1&quot;&gt;&lt;b&gt;etwork &lt;br/&gt;peering&lt;br/&gt;&lt;/b&gt;&lt;/font&gt;&lt;/div&gt;" tags="Background" id="tmEIZODM_RHfzEJAgpSY-22">
          <mxCell style="verticalAlign=middle;align=center;overflow=width;vsdxID=10778;fillColor=none;gradientColor=none;shape=stencil(nZBLDoAgDERP0z3SIyjew0SURgSD+Lu9kMZoXLhwN9O+tukAlrNpJg1SzDH4QW/URgNYgZTkjA4UkwJUgGXng+6DX1zLfmoymdXo17xh5zmRJ6Q42BWCfc2oJfdAr+Yv+AP9Cb7OJ3H/2JG1HNGz/84klThPVCc=);strokeColor=none;points=[];labelBackgroundColor=none;rounded=0;html=1;whiteSpace=wrap;" vertex="1" parent="1">
            <mxGeometry x="666" y="865" width="100" height="59" as="geometry" />
          </mxCell>
        </UserObject>
        <UserObject label="" tags="Background" id="tmEIZODM_RHfzEJAgpSY-23">
          <mxCell style="vsdxID=11118;fillColor=none;gradientColor=none;strokeColor=none;spacingTop=-3;spacingBottom=-3;spacingLeft=-3;spacingRight=-3;points=[];labelBackgroundColor=none;rounded=0;html=1;whiteSpace=wrap;" vertex="1" parent="1">
            <mxGeometry x="450" y="1020" width="32" height="18" as="geometry" />
          </mxCell>
        </UserObject>
        <mxCell id="tmEIZODM_RHfzEJAgpSY-24" style="vsdxID=11119;fillColor=#3999c6;gradientColor=none;shape=stencil(lZRNcsIwDIVPk63Glvy7pnAPpoSSKSVMCC3cvk5tguW0KeyMeM/6FD+7osVptz7WFYpT37Xv9Vez6XcVvVSIzWFXd00fVhUtK1ps265+69rzYRN/H9eDclh9tJ/DDpfo8wacH1worrGiEZT8qayi4fXcRYeMAilEMqSCFmDSHhdM23ogl1SppCx4SiqaNk8lZQBZ931zyHCdBM9xadz2V4NU4CUzSLA4O54Ex+cTfDYLSvPRBB9LAWk+VdmTM2b6BxEBFUekkelGGc4EOeX4ZWdA5z+mVaCJkU6Oq0S1FkzBmgcBpyqchoqm7emPsHJgAskP3yMIO8dbRNsT2CLagnOGDGvNObOut6A7QPcMZqkvMe9neS1v5Y0z5FgWVzDcSmM4q6Sx9CCsEyCR0Zr/8ppbZOkZgXMVTlU0qmwR2qCiGeAHnrinDWFxf1G3zX4fH+T8//IFDqX4etPyGw==);strokeColor=none;spacingTop=-3;spacingBottom=-3;spacingLeft=-3;spacingRight=-3;points=[];labelBackgroundColor=none;rounded=0;html=1;whiteSpace=wrap;" vertex="1" parent="tmEIZODM_RHfzEJAgpSY-23">
          <mxGeometry x="21" width="10" height="18" as="geometry" />
        </mxCell>
        <mxCell id="tmEIZODM_RHfzEJAgpSY-25" style="vsdxID=11120;fillColor=#3999c6;gradientColor=none;shape=stencil(lZTRdoMgDIafxtscSAThuuveo2e10zNXe6zd2rcfHqgS2Ox6h/EP+RJ+KGhzbnanukBxHof+o/5u92NT0EuB2B6bemhHtypoW9Dm0A/1+9Bfjnv/fdpNymn12X9NO1x9HoGUUxKKmw8ohNJHXr3+7TL4BOkFIsjDpxKgrQ9dMShAYxCFSFmBpSCirHCIlBqQVe7aY0QqDQiOSvOuvyYYBcKyBAkVrrVmDCDvTvDOLIJSvDXB27IKtOJ9pVU5ZZzwP0proNIck6BUCakFMpx0Hu8a7PpI3R4VP4Ps0FJax5bAxmbATIS5rSgvTn+YNZmtBsMd4A5QVGu4UiT+tgRV4u9Fg3Oduy3m0UalaT43NE/BpgmZExa2W8p/h3WeNsltdN7QmuMaDVQ+heuuoyaGqx/ONkqRac4y3UiFuYpmlUjMoNcv2uOX7lm9WyzP6qHtOv8qx//TZ9iF/BNO2x8=);strokeColor=none;spacingTop=-3;spacingBottom=-3;spacingLeft=-3;spacingRight=-3;points=[];labelBackgroundColor=none;rounded=0;html=1;whiteSpace=wrap;" vertex="1" parent="tmEIZODM_RHfzEJAgpSY-23">
          <mxGeometry width="10" height="18" as="geometry" />
        </mxCell>
        <mxCell id="tmEIZODM_RHfzEJAgpSY-26" style="vsdxID=11121;fillColor=#7fba00;gradientColor=none;shape=stencil(jZLREoIgEEW/hlcGFxV8NvsPJzWZTB3Usr9PZmkUKuttd7nL4Q6X8HSo874kwIZRd5fyroqxJvxAAFRbl1qNS0V4Rnhadbo8625qC+z73ChNde1u5oYZ9wLGzA6wB/YRtkfUniaN4sBX24GQVCQ4msGOYhoKqwJvbeaWEqwa7mq+kGFzq/+YF5m5VBFREbtc5jL3zXpWIaQQukBgNEpc6G+ju0zJqJQu1zO5fgG8v4v7mo9GG9X+nYClWKNTqabB5G3P/agtI4wpz54=);strokeColor=none;spacingTop=-3;spacingBottom=-3;spacingLeft=-3;spacingRight=-3;points=[];labelBackgroundColor=none;rounded=0;html=1;whiteSpace=wrap;" vertex="1" parent="tmEIZODM_RHfzEJAgpSY-23">
          <mxGeometry x="7" y="6" width="4" height="4" as="geometry" />
        </mxCell>
        <mxCell id="tmEIZODM_RHfzEJAgpSY-27" style="vsdxID=11122;fillColor=#7fba00;gradientColor=none;shape=stencil(jZLRDoIwDEW/Zq/LaIHJM+p/EBmyiEAGKP69kM7ApqJvbXe7s5tdhmlXZq1iILreNBd113lfMtwzAF2Xyuh+qhgeGKZFY9TZNEOdU99ms3Kurs1tvmGkvUCIeQfEg/qI2iNpT4MhceCr7UDuuExoNIIdxTyUVgXe2oiWEiwadDVfyLC61X/Miyxcqoy4jF2ucJnbZj2rEHIIXSAgj9CF/ja6yZQJDwOX65lcvgDe34W+5qPRStd/J2AqlugUuqooeetzP2rTiGKKhyc=);strokeColor=none;spacingTop=-3;spacingBottom=-3;spacingLeft=-3;spacingRight=-3;points=[];labelBackgroundColor=none;rounded=0;html=1;whiteSpace=wrap;" vertex="1" parent="tmEIZODM_RHfzEJAgpSY-23">
          <mxGeometry x="13" y="6" width="4" height="4" as="geometry" />
        </mxCell>
        <mxCell id="tmEIZODM_RHfzEJAgpSY-28" style="vsdxID=11123;fillColor=#7fba00;gradientColor=none;shape=stencil(vVHLDsIgEPwajiQI6RfU+h8bu22JCGRB2/69kG1iazx58DazM/vIjjBtmiCi0CplCjecbZ8nYc5Ca+snJJsLEqYTph0C4Ujh4XvmEaqzont41gkL96naodXKrGF6YSfQtUi0OXXDVlqPfJNP6usotUhYbJIUMmQb/GGrAxpRljVycDBuc1hKM2LclX8/7H9nFfB+82Cd45T2+mcspcSRmu4F);strokeColor=none;spacingTop=-3;spacingBottom=-3;spacingLeft=-3;spacingRight=-3;points=[];labelBackgroundColor=none;rounded=0;html=1;whiteSpace=wrap;" vertex="1" parent="tmEIZODM_RHfzEJAgpSY-23">
          <mxGeometry x="20" y="6" width="4" height="4" as="geometry" />
        </mxCell>
        <UserObject label="&lt;div style=&quot;font-size: 1px&quot;&gt;&lt;/div&gt;" tags="Background" id="tmEIZODM_RHfzEJAgpSY-29">
          <mxCell style="verticalAlign=middle;align=center;overflow=width;vsdxID=11124;fillColor=#b1dafb;gradientColor=none;shape=stencil(nZBLDoAgDERP0z3SIyjew0SURgSD+Lu9kMZoXLhwN9O+tukAlrNpJg1SzDH4QW/URgNYgZTkjA4UkwJUgGXng+6DX1zLfmoymdXo17xh5zmRJ6Q42BWCfc2oJfdAr+Yv+AP9Cb7OJ3H/2JG1HNGz/84klThPVCc=);strokeColor=#6b859a;points=[[1,0.5,0],[0.5,0,0],[0.5,0.5,0],[0.5,0.5,0]];labelBackgroundColor=none;rounded=0;html=1;whiteSpace=wrap;" vertex="1" parent="1">
            <mxGeometry x="-114" y="868" width="160" height="60" as="geometry" />
          </mxCell>
        </UserObject>
        <UserObject label="&lt;div style=&quot;font-size: 1px&quot;&gt;&lt;/div&gt;" tags="Background" id="tmEIZODM_RHfzEJAgpSY-30">
          <mxCell style="verticalAlign=middle;align=center;overflow=width;vsdxID=11125;fillColor=#ffffff;gradientColor=none;shape=stencil(nZBLDoAgDERP0z3SIyjew0SURgSD+Lu9kMZoXLhwN9O+tukAlrNpJg1SzDH4QW/URgNYgZTkjA4UkwJUgGXng+6DX1zLfmoymdXo17xh5zmRJ6Q42BWCfc2oJfdAr+Yv+AP9Cb7OJ3H/2JG1HNGz/84klThPVCc=);strokeColor=#6b859a;points=[[1,0.5,0],[0.5,0,0],[0.5,0.5,0],[0.5,0.5,0]];labelBackgroundColor=none;rounded=0;html=1;whiteSpace=wrap;" vertex="1" parent="1">
            <mxGeometry x="-114" y="929" width="160" height="60" as="geometry" />
          </mxCell>
        </UserObject>
        <UserObject label="&lt;div style=&quot;font-size: 1px&quot;&gt;&lt;font style=&quot;font-size:14.11px;font-family:Segoe UI Semibold;color:#6b859a;direction:ltr;letter-spacing:0px;line-height:120%;opacity:1&quot;&gt;&lt;span&gt;On-Premises&lt;br&gt;&lt;/span&gt;&lt;/font&gt;&lt;/div&gt;" tags="Background" id="tmEIZODM_RHfzEJAgpSY-31">
          <mxCell style="verticalAlign=middle;align=center;overflow=width;vsdxID=11126;fillColor=none;gradientColor=none;shape=stencil(nZBLDoAgDERP0z3SIyjew0SURgSD+Lu9kMZoXLhwN9O+tukAlrNpJg1SzDH4QW/URgNYgZTkjA4UkwJUgGXng+6DX1zLfmoymdXo17xh5zmRJ6Q42BWCfc2oJfdAr+Yv+AP9Cb7OJ3H/2JG1HNGz/84klThPVCc=);strokeColor=none;points=[];labelBackgroundColor=none;rounded=0;html=1;whiteSpace=wrap;fontStyle=1" vertex="1" parent="1">
            <mxGeometry x="-114" y="868" width="160" height="60" as="geometry" />
          </mxCell>
        </UserObject>
        <UserObject label="&lt;div style=&quot;font-size: 1px&quot;&gt;&lt;p style=&quot;text-align:right;margin-left:0;margin-right:0;margin-top:0px;margin-bottom:0px;text-indent:0;vertical-align:bottom;direction:ltr;&quot;&gt;&lt;font style=&quot;font-size:14.11px;font-family:Segoe UI Semibold;color:#6b859a;direction:ltr;letter-spacing:0px;line-height:120%;opacity:1&quot;&gt;&lt;span&gt;Subnet&lt;/span&gt;&lt;/font&gt;&lt;font style=&quot;font-size:14.11px;font-family:Segoe UI Semibold;color:#6b859a;direction:ltr;letter-spacing:0px;line-height:120%;opacity:1&quot;&gt;&lt;span&gt;&lt;br&gt;&lt;/span&gt;&lt;/font&gt;&lt;/p&gt;&lt;/div&gt;" tags="Background" id="tmEIZODM_RHfzEJAgpSY-32">
          <mxCell style="verticalAlign=bottom;align=right;overflow=width;vsdxID=11127;fillColor=#f2f2f2;gradientColor=none;shape=stencil(nZBLDoAgDERP0z3SIyjew0SURgSD+Lu9kMZoXLhwN9O+tukAlrNpJg1SzDH4QW/URgNYgZTkjA4UkwJUgGXng+6DX1zLfmoymdXo17xh5zmRJ6Q42BWCfc2oJfdAr+Yv+AP9Cb7OJ3H/2JG1HNGz/84klThPVCc=);dashed=1;dashPattern=1.00 2.00;strokeColor=#6b859a;points=[[1,0.5,0],[0.5,0,0],[0.5,0.5,0],[0.5,0.5,0]];labelBackgroundColor=none;rounded=0;html=1;whiteSpace=wrap;strokeWidth=2;fontStyle=1" vertex="1" parent="1">
            <mxGeometry x="786" y="840" width="180" height="170" as="geometry" />
          </mxCell>
        </UserObject>
        <UserObject label="" tags="Background" id="tmEIZODM_RHfzEJAgpSY-33">
          <mxCell style="vsdxID=11128;fillColor=none;gradientColor=none;strokeColor=none;spacingTop=-3;spacingBottom=-3;spacingLeft=-3;spacingRight=-3;points=[];labelBackgroundColor=none;rounded=0;html=1;whiteSpace=wrap;" vertex="1" parent="1">
            <mxGeometry x="774" y="1020" width="32" height="18" as="geometry" />
          </mxCell>
        </UserObject>
        <mxCell id="tmEIZODM_RHfzEJAgpSY-34" style="vsdxID=11129;fillColor=#3999c6;gradientColor=none;shape=stencil(lZRNcsIwDIVPk63Glvy7pnAPpoSSKSVMCC3cvk5tguW0KeyMeM/6FD+7osVptz7WFYpT37Xv9Vez6XcVvVSIzWFXd00fVhUtK1ps265+69rzYRN/H9eDclh9tJ/DDpfo8wacH1worrGiEZT8qayi4fXcRYeMAilEMqSCFmDSHhdM23ogl1SppCx4SiqaNk8lZQBZ931zyHCdBM9xadz2V4NU4CUzSLA4O54Ex+cTfDYLSvPRBB9LAWk+VdmTM2b6BxEBFUekkelGGc4EOeX4ZWdA5z+mVaCJkU6Oq0S1FkzBmgcBpyqchoqm7emPsHJgAskP3yMIO8dbRNsT2CLagnOGDGvNObOut6A7QPcMZqkvMe9neS1v5Y0z5FgWVzDcSmM4q6Sx9CCsEyCR0Zr/8ppbZOkZgXMVTlU0qmwR2qCiGeAHnrinDWFxf1G3zX4fH+T8//IFDqX4etPyGw==);strokeColor=none;spacingTop=-3;spacingBottom=-3;spacingLeft=-3;spacingRight=-3;points=[];labelBackgroundColor=none;rounded=0;html=1;whiteSpace=wrap;" vertex="1" parent="tmEIZODM_RHfzEJAgpSY-33">
          <mxGeometry x="21" width="10" height="18" as="geometry" />
        </mxCell>
        <mxCell id="tmEIZODM_RHfzEJAgpSY-35" style="vsdxID=11130;fillColor=#3999c6;gradientColor=none;shape=stencil(lZTRdoMgDIafxtscSAThuuveo2e10zNXe6zd2rcfHqgS2Ox6h/EP+RJ+KGhzbnanukBxHof+o/5u92NT0EuB2B6bemhHtypoW9Dm0A/1+9Bfjnv/fdpNymn12X9NO1x9HoGUUxKKmw8ohNJHXr3+7TL4BOkFIsjDpxKgrQ9dMShAYxCFSFmBpSCirHCIlBqQVe7aY0QqDQiOSvOuvyYYBcKyBAkVrrVmDCDvTvDOLIJSvDXB27IKtOJ9pVU5ZZzwP0proNIck6BUCakFMpx0Hu8a7PpI3R4VP4Ps0FJax5bAxmbATIS5rSgvTn+YNZmtBsMd4A5QVGu4UiT+tgRV4u9Fg3Oduy3m0UalaT43NE/BpgmZExa2W8p/h3WeNsltdN7QmuMaDVQ+heuuoyaGqx/ONkqRac4y3UiFuYpmlUjMoNcv2uOX7lm9WyzP6qHtOv8qx//TZ9iF/BNO2x8=);strokeColor=none;spacingTop=-3;spacingBottom=-3;spacingLeft=-3;spacingRight=-3;points=[];labelBackgroundColor=none;rounded=0;html=1;whiteSpace=wrap;" vertex="1" parent="tmEIZODM_RHfzEJAgpSY-33">
          <mxGeometry width="10" height="18" as="geometry" />
        </mxCell>
        <mxCell id="tmEIZODM_RHfzEJAgpSY-36" style="vsdxID=11131;fillColor=#7fba00;gradientColor=none;shape=stencil(jZLREoIgEEW/hlcGFxV8NvsPJzWZTB3Usr9PZmkUKuttd7nL4Q6X8HSo874kwIZRd5fyroqxJvxAAFRbl1qNS0V4Rnhadbo8625qC+z73ChNde1u5oYZ9wLGzA6wB/YRtkfUniaN4sBX24GQVCQ4msGOYhoKqwJvbeaWEqwa7mq+kGFzq/+YF5m5VBFREbtc5jL3zXpWIaQQukBgNEpc6G+ju0zJqJQu1zO5fgG8v4v7mo9GG9X+nYClWKNTqabB5G3P/agtI4wpz54=);strokeColor=none;spacingTop=-3;spacingBottom=-3;spacingLeft=-3;spacingRight=-3;points=[];labelBackgroundColor=none;rounded=0;html=1;whiteSpace=wrap;" vertex="1" parent="tmEIZODM_RHfzEJAgpSY-33">
          <mxGeometry x="7" y="6" width="4" height="4" as="geometry" />
        </mxCell>
        <mxCell id="tmEIZODM_RHfzEJAgpSY-37" style="vsdxID=11132;fillColor=#7fba00;gradientColor=none;shape=stencil(jZLRDoIwDEW/Zq/LaIHJM+p/EBmyiEAGKP69kM7ApqJvbXe7s5tdhmlXZq1iILreNBd113lfMtwzAF2Xyuh+qhgeGKZFY9TZNEOdU99ms3Kurs1tvmGkvUCIeQfEg/qI2iNpT4MhceCr7UDuuExoNIIdxTyUVgXe2oiWEiwadDVfyLC61X/Miyxcqoy4jF2ucJnbZj2rEHIIXSAgj9CF/ja6yZQJDwOX65lcvgDe34W+5qPRStd/J2AqlugUuqooeetzP2rTiGKKhyc=);strokeColor=none;spacingTop=-3;spacingBottom=-3;spacingLeft=-3;spacingRight=-3;points=[];labelBackgroundColor=none;rounded=0;html=1;whiteSpace=wrap;" vertex="1" parent="tmEIZODM_RHfzEJAgpSY-33">
          <mxGeometry x="13" y="6" width="4" height="4" as="geometry" />
        </mxCell>
        <mxCell id="tmEIZODM_RHfzEJAgpSY-38" style="vsdxID=11133;fillColor=#7fba00;gradientColor=none;shape=stencil(vVHLDsIgEPwajiQI6RfU+h8bu22JCGRB2/69kG1iazx58DazM/vIjjBtmiCi0CplCjecbZ8nYc5Ca+snJJsLEqYTph0C4Ujh4XvmEaqzont41gkL96naodXKrGF6YSfQtUi0OXXDVlqPfJNP6usotUhYbJIUMmQb/GGrAxpRljVycDBuc1hKM2LclX8/7H9nFfB+82Cd45T2+mcspcSRmu4F);strokeColor=none;spacingTop=-3;spacingBottom=-3;spacingLeft=-3;spacingRight=-3;points=[];labelBackgroundColor=none;rounded=0;html=1;whiteSpace=wrap;" vertex="1" parent="tmEIZODM_RHfzEJAgpSY-33">
          <mxGeometry x="20" y="6" width="4" height="4" as="geometry" />
        </mxCell>
        <UserObject label="" tags="Background" id="tmEIZODM_RHfzEJAgpSY-39">
          <mxCell style="vsdxID=11134;fillColor=none;gradientColor=none;strokeColor=none;spacingTop=-3;spacingBottom=-3;spacingLeft=-3;spacingRight=-3;points=[];labelBackgroundColor=none;rounded=0;html=1;whiteSpace=wrap;" vertex="1" parent="1">
            <mxGeometry x="792" y="970" width="28" height="28" as="geometry" />
          </mxCell>
        </UserObject>
        <mxCell id="tmEIZODM_RHfzEJAgpSY-40" style="vsdxID=11135;fillColor=#59b4d9;gradientColor=none;shape=stencil(jZLdDoIwDIWfZrdktCLeI74HkSGLCGSAwtu7pRjo8O+uPTvt1y4VmHRl1ioBsutNc1UPnfelwKMA0HWpjO5tJDAVmBSNURfTDHVOeZs5p4tuzd11GKkulNLVgJwojyg9kfc8GDKHvnsW4jg47EgaYSNN4JWNyChyQm74gAUIwj0HLy1nhuTI9WDIHfjPpjKIYk5cDfFiWilGzv2x6Ffm+udC3s7/yAm2Q6HvebuoDZZbKHRV0Smt3/3bsRLdHaZP);strokeColor=none;spacingTop=-3;spacingBottom=-3;spacingLeft=-3;spacingRight=-3;points=[];labelBackgroundColor=none;rounded=0;html=1;whiteSpace=wrap;" vertex="1" parent="tmEIZODM_RHfzEJAgpSY-39">
          <mxGeometry x="14" y="3" width="9" height="9" as="geometry" />
        </mxCell>
        <mxCell id="tmEIZODM_RHfzEJAgpSY-41" style="vsdxID=11136;fillColor=#59b4d9;gradientColor=none;shape=stencil(nZHNDsIgEISfZq9ku1C151rfo0mpEBEain9vL0iM1cRqepvd/WYPM8DrUbWDBMIxeHeQF90FBXwLRNoq6XWICngDvO6dl3vvTrbL89AmMqmjO6cP1+xbIytWyUV4yxt8TLsMG20nsKjYRrzBAlkpvhuoYiX9+x2XgQXOoM/jIngG/RFbFK/Ae21M7mt6/ywornK5vLkD);strokeColor=none;spacingTop=-3;spacingBottom=-3;spacingLeft=-3;spacingRight=-3;points=[];labelBackgroundColor=none;rounded=0;html=1;whiteSpace=wrap;" vertex="1" parent="tmEIZODM_RHfzEJAgpSY-39">
          <mxGeometry x="10" y="15" width="17" height="12" as="geometry" />
        </mxCell>
        <mxCell id="tmEIZODM_RHfzEJAgpSY-42" style="vsdxID=11137;fillColor=#FFFFFF;gradientColor=none;fillOpacity=20;strokeOpacity=20;shape=stencil(fVJdD4IwDPw1e226Vhg8K/4PoyCLCGTi178X0hGpMbz1rtfdbZ3h7a0+9KUhvA2hu5RPfxpqwztD5Nu6DH4YK8OF4W3VhfIcunt7EtwfJuVUXbvHdMJL5nCaIHwLSgTuRXm8B5FarY3QOSAn1IuE4hSsjapI5TlsOKo4DuaQRuodKYvKufHtIuPcnFNacGsxc4aEdFTUMTMHuNExUUfMEJJUR1x9muXF/3ui9iMCm2pP1H56F2PxXWHlm0Z+wLL/u/KRku/CxQc=);strokeColor=none;spacingTop=-3;spacingBottom=-3;spacingLeft=-3;spacingRight=-3;points=[];labelBackgroundColor=none;rounded=0;html=1;whiteSpace=wrap;" vertex="1" parent="tmEIZODM_RHfzEJAgpSY-39">
          <mxGeometry x="14" y="3" width="6" height="9" as="geometry" />
        </mxCell>
        <mxCell id="tmEIZODM_RHfzEJAgpSY-43" style="vsdxID=11138;fillColor=#FFFFFF;gradientColor=none;fillOpacity=20;strokeOpacity=20;shape=stencil(nZHdCsIwDIWfJrclbXDufs73GKyzxdqOrk59e1vDcAj+4N1JzpdAToCayXSjBoVTiuGoL7ZPBmgHSllvdLQpK6AWqBlC1IcYzr7neuwKWdQpzGXDleeqjUAqUwpv3MFHtWfYWb+C8T9Q4ge0rsRW/o4v5gKTFFi/x7+cl8UzmME6x7mu/dcgc4ufQO0d);strokeColor=none;spacingTop=-3;spacingBottom=-3;spacingLeft=-3;spacingRight=-3;points=[];labelBackgroundColor=none;rounded=0;html=1;whiteSpace=wrap;" vertex="1" parent="tmEIZODM_RHfzEJAgpSY-39">
          <mxGeometry x="10" y="15" width="8" height="12" as="geometry" />
        </mxCell>
        <mxCell id="tmEIZODM_RHfzEJAgpSY-44" style="vsdxID=11139;fillColor=#a0a1a2;gradientColor=none;shape=stencil(nZLRDoMgDEW/pq8EaDTu2bn/MBEHGQODzG1/PxhZpi5q3NttOW1KewHLXtadAE577+xF3FXjJeAROFdGCqd8UIAVYNlaJ87O3kyT4q6OZFRXO8QOj1THi1jC6TOFOSPs8M6cEq2VGdEZJ9mEZ5Qu07iLphM029N3hf2ZeIWd7QILQvNl+vOZP/GNTW/dJYjvSVuldXLE+H1ugZBK9sHqBQ==);strokeColor=none;spacingTop=-3;spacingBottom=-3;spacingLeft=-3;spacingRight=-3;points=[];labelBackgroundColor=none;rounded=0;html=1;whiteSpace=wrap;" vertex="1" parent="tmEIZODM_RHfzEJAgpSY-39">
          <mxGeometry y="5" width="11" height="7" as="geometry" />
        </mxCell>
        <mxCell id="tmEIZODM_RHfzEJAgpSY-45" style="vsdxID=11140;fillColor=#a0a1a2;gradientColor=none;shape=stencil(UzV2Ls5ILEhVNTIoLinKz04tz0wpyVA1dlE1MsrMy0gtyiwBslSNXVWNndPyi1LTi/JL81Ig/IJEkEoQKze/DGRCBUSfoYEBSI+RQSWED+G5QZTmZObhUQrjY1VMtlISHICiFMhA+DEtMycHEkTI8uhhAhSChKexKwA=);strokeColor=none;spacingTop=-3;spacingBottom=-3;spacingLeft=-3;spacingRight=-3;points=[];labelBackgroundColor=none;rounded=0;html=1;whiteSpace=wrap;" vertex="1" parent="tmEIZODM_RHfzEJAgpSY-39">
          <mxGeometry x="9" width="1" height="10" as="geometry" />
        </mxCell>
        <UserObject label="" tags="Background" id="tmEIZODM_RHfzEJAgpSY-67">
          <mxCell style="vsdxID=11162;fillColor=none;gradientColor=none;strokeColor=none;spacingTop=-3;spacingBottom=-3;spacingLeft=-3;spacingRight=-3;points=[];labelBackgroundColor=none;rounded=0;html=1;whiteSpace=wrap;" vertex="1" parent="1">
            <mxGeometry x="954" y="830" width="23" height="32" as="geometry" />
          </mxCell>
        </UserObject>
        <mxCell id="tmEIZODM_RHfzEJAgpSY-68" style="vsdxID=11163;fillColor=none;gradientColor=none;strokeColor=none;spacingTop=-3;spacingBottom=-3;spacingLeft=-3;spacingRight=-3;points=[];labelBackgroundColor=none;rounded=0;html=1;whiteSpace=wrap;" vertex="1" parent="tmEIZODM_RHfzEJAgpSY-67">
          <mxGeometry width="23" height="32" as="geometry" />
        </mxCell>
        <mxCell id="tmEIZODM_RHfzEJAgpSY-69" style="vsdxID=11164;fillColor=#0072c6;gradientColor=none;shape=stencil(jVTLcoMwDPwaXzW2/MLnNPmPTEMKUxoyhLT07wu1GVvqhOZmSSvvWg8Lvbs1x2stUN7GoX+vv9rT2Aj9IhDbS1MP7TifhN4LvTv3Q/029PfLKdrX44JcTh/953LDFPMqC2iXLJTf0aMQJP56DjHh9T7EDBUB1oIKKSW5AriYIidMIJkQyU7mpFlYl+FHhJKySUplNChP2eY3GKSMjDAjEmnXXoqySFISp8HrLYVMoAsQDBMJzlCN3oK3VKNSgFRmJcG7LWa0EBxrBoKqtruh5D/9WAFPdiTfxwlWxkpD8Oy1kpH+KTPtScY/aCFXGQxYw4QWg7Eqy8NbjA+y8Sn3JI8QXRQq94nNmg95L89t18W1LuN8j2dX/AP0/gc=);strokeColor=none;strokeWidth=17;spacingTop=-3;spacingBottom=-3;spacingLeft=-3;spacingRight=-3;points=[];labelBackgroundColor=none;rounded=0;html=1;whiteSpace=wrap;" vertex="1" parent="tmEIZODM_RHfzEJAgpSY-68">
          <mxGeometry width="23" height="32" as="geometry" />
        </mxCell>
        <mxCell id="tmEIZODM_RHfzEJAgpSY-70" style="vsdxID=11165;fillColor=#3999c6;gradientColor=none;fillOpacity=40;strokeOpacity=40;shape=stencil(lZLRboMwDEW/Jq+WHYcQnrv2P6qWjmgMqpRu9O8HMqhJVjTtzdwc+14sK97dmuO1VhpvQ+g/6m9/HhrFb0pr3zV18MNUKd4r3l36UL+H/t6d5ft6nMm5+uy/5gmj9JUMZm7S+BDBIFSiHIRvfRfxhJjgZMBVMX66B5lPAlgD5eqwSERQkUijFqlwYIuFWqTFZ+TfBMfEhm/MUzpx9USwJvWkAtilvph6PomX60mXU7r1RzdCYhrQWbBZRjDZWiqGLCExkMlSIm5nZAakJKfDdVcvG/57I3/zU/E8yItvW7nn+D0/4EmS4+f9Dw==);strokeColor=none;strokeWidth=17;spacingTop=-3;spacingBottom=-3;spacingLeft=-3;spacingRight=-3;points=[];labelBackgroundColor=none;rounded=0;html=1;whiteSpace=wrap;" vertex="1" parent="tmEIZODM_RHfzEJAgpSY-68">
          <mxGeometry width="20" height="25" as="geometry" />
        </mxCell>
        <mxCell id="tmEIZODM_RHfzEJAgpSY-71" style="vsdxID=11166;fillColor=none;gradientColor=none;strokeColor=none;spacingTop=-3;spacingBottom=-3;spacingLeft=-3;spacingRight=-3;points=[];labelBackgroundColor=none;rounded=0;html=1;whiteSpace=wrap;" vertex="1" parent="tmEIZODM_RHfzEJAgpSY-68">
          <mxGeometry x="2" y="3" width="18" height="25" as="geometry" />
        </mxCell>
        <mxCell id="tmEIZODM_RHfzEJAgpSY-72" style="vsdxID=11167;fillColor=#FFFFFF;gradientColor=none;fillOpacity=30;strokeOpacity=30;shape=stencil(nZLRDoIwDEW/Zq/L1jpwz6j/QWTIIjIyQPHvZdkURtRE39q7096kuwSzrspbRYB1vTVnddNFXxHcEQDdVMrqfqoI7glmpbHqZM3QFL5vc0e66mKubsPo55ibAHZfdgcP1rr5CIKkabKEj4P1a3mMh3bDqRReGsFLkgoZoKAIpDwNEAYfoEmAgpIAlfjNWQBlInbfCopp7M4Zi81fwtN6JlbC2/PM9I+X/A+civlHS13XPhDL93UCJsmnB/cP);strokeColor=none;strokeWidth=17;spacingTop=-3;spacingBottom=-3;spacingLeft=-3;spacingRight=-3;points=[];labelBackgroundColor=none;rounded=0;html=1;whiteSpace=wrap;" vertex="1" parent="tmEIZODM_RHfzEJAgpSY-71">
          <mxGeometry y="12" width="9" height="13" as="geometry" />
        </mxCell>
        <mxCell id="tmEIZODM_RHfzEJAgpSY-73" style="vsdxID=11168;fillColor=#FFFFFF;gradientColor=none;fillOpacity=70;strokeOpacity=70;shape=stencil(vZNNDoIwEIVP023TdiiBNeI9iBRpREoqKNxemiGBNmokJu7mvX79mZcpgexWF50igt16ay7qocu+JnAgQui2Vlb3c0UgJ5BVxqqzNUNbou4KR7rqau7uhBH3Sea2CDah5Az1EdnTYBHmAc19nI0iMKbFSICmYmEgZBYjBpqI7bWNbjdPXHnUUUKj9D0uf6GD/vewH3PdlWqQaQSUSz9VLqiM/VSDTFfiZSv/S/T7PD1yLtaRrXTT4MRv18MRny38HpA/AQ==);strokeColor=none;strokeWidth=17;spacingTop=-3;spacingBottom=-3;spacingLeft=-3;spacingRight=-3;points=[];labelBackgroundColor=none;rounded=0;html=1;whiteSpace=wrap;" vertex="1" parent="tmEIZODM_RHfzEJAgpSY-71">
          <mxGeometry width="18" height="25" as="geometry" />
        </mxCell>
        <mxCell id="tmEIZODM_RHfzEJAgpSY-74" style="vsdxID=11169;fillColor=#FFFFFF;gradientColor=none;fillOpacity=30;strokeOpacity=30;shape=stencil(nVLbDoIwDP2avS6jAzaeUf+DyJBFZGSA4t/LLLeZSIxv7ek5W09bwtO2zBpFgLWdNVf10HlXEn4gALouldXdGBF+JDwtjFUXa/o6x7zJHNNFN3N3LwyoixMqY6cC9kQEQhrKN3JCwbm3qAiQEDAKYpLMULJAAyDEJoafDtyveun0X6XrTYPMay5gO9S5+BcZIhrBnm2ZUBb6tlfNYltIKoRvHSLf+3bk/MvM/V5/WNIYrCsudFXhhWzrnycxQnhO/PgC);strokeColor=none;strokeWidth=17;spacingTop=-3;spacingBottom=-3;spacingLeft=-3;spacingRight=-3;points=[];labelBackgroundColor=none;rounded=0;html=1;whiteSpace=wrap;" vertex="1" parent="tmEIZODM_RHfzEJAgpSY-71">
          <mxGeometry x="9" width="9" height="12" as="geometry" />
        </mxCell>
        <UserObject label="" tags="Background" id="tmEIZODM_RHfzEJAgpSY-75">
          <mxCell style="vsdxID=11170;fillColor=none;gradientColor=none;strokeColor=none;spacingTop=-3;spacingBottom=-3;spacingLeft=-3;spacingRight=-3;points=[];labelBackgroundColor=none;rounded=0;html=1;whiteSpace=wrap;" vertex="1" parent="1">
            <mxGeometry x="478" y="855" width="48" height="48" as="geometry" />
          </mxCell>
        </UserObject>
        <mxCell id="tmEIZODM_RHfzEJAgpSY-76" style="vsdxID=11171;fillColor=none;gradientColor=none;strokeColor=none;spacingTop=-3;spacingBottom=-3;spacingLeft=-3;spacingRight=-3;points=[];labelBackgroundColor=none;rounded=0;html=1;whiteSpace=wrap;" vertex="1" parent="tmEIZODM_RHfzEJAgpSY-75">
          <mxGeometry width="48" height="48" as="geometry" />
        </mxCell>
        <mxCell id="tmEIZODM_RHfzEJAgpSY-77" style="vsdxID=11172;fillColor=#59b4d9;gradientColor=none;shape=stencil(hZRNcoMwDIVPw1ZjSzaW12lyj0xDClMKGULa5PaF2vxYbejOfujxybLkjHbX8ngpMlTXvmvfi6/q1JcZvWSIVVMWXdUPq4z2Ge3ObVe8de2tOYX95ThGjquP9nP8wz34kID16EL1CAohUP6jHILh9dYFh46WHJSLlihpAo9BumP8DQPZGBUlFSMobC0BcYygdcQTbu5nyMRVKZMJUKdM7cBwyl1H0Zws0xZ77YmS0WDEmRnB5ynfEORe8BGc4BsL3m7xPc7HmPkO0KZ8rVRKtwwCvoREwSEwbqEXx1QLBy7leg1Iou5K3DaryfUQqURuXTXrvrRgp1L+Gf4rTQ2W0kSXHNIGnHJkA8alWYri5DYm/QSq5iuYb4UBRVfo4eSckmmYF9GV60GculJOoijR/6M7LJbBP1d1Hd6N9Xf5UAxSeGRo/w0=);strokeColor=none;strokeWidth=17;spacingTop=-3;spacingBottom=-3;spacingLeft=-3;spacingRight=-3;points=[];labelBackgroundColor=none;rounded=0;html=1;whiteSpace=wrap;" vertex="1" parent="tmEIZODM_RHfzEJAgpSY-76">
          <mxGeometry x="9" width="38" height="29" as="geometry" />
        </mxCell>
        <mxCell id="tmEIZODM_RHfzEJAgpSY-78" style="vsdxID=11173;fillColor=#a0a1a2;gradientColor=none;shape=stencil(xZfNdtsgEIWfxkvPAYYfsU6T99BJZFunrpUjO43y9sUVkhhkwF602Qk0EpcPmLls8Ol8qN+bjWDnS9/9bD7bt8thgz82QrSnQ9O3F/e0wecNPu26vtn33cfpbWy/19fI69Ov7vf1D8P4HWfs+o1gX2NbgzZ/O17G6NePfgzncbzvwLE5iLFpDVQ+wPf4+AF9gAIufASGEX7AY3sK5OkKhCUCWU6dNiCpPEblaQ0q1geoqEStoFKRRLAYDlz3r+5t71UqC8x/0HuZFQPj/zp2SNCSTMSR4r5n2NZDe9723aW+tN2JKD/W/b7ZuvG2u2O9J6/On03zHnTzNEd0836AI6pJfYIjSqhMiaML4g9xlBwkpxyV25CEowAU38fRTbu6H6MAkaXIKEGk+BhFF59MKoyeYoGAmFMWHWI3L6UibSA0lScU6CqSOPdMKlcy6Qq7YyGRrjBnFqwga0wnY6dB//nq0nFlKRdGEKWZN0caonSpgpcgKpYmqJbkNBE0elrtFEDQ+nsYmuz5iAAaDkKUABqxyjNrgCbe/5QhckBLGUoBNofQLoj/M0L74Fm2hiJckpCISvjEL0hqSENu1xIOhhOJUfiqmogph3/FLmKuJwgykumQ63JBcVEse0jDSsXXf57GXwpeilJYQu/BpHEuZvdh0hKwgMk5E45FTDf8SxFTaIzSmAJ/lcIUOrZ7MIV+8C5MgcNMYVpM6uxKqcglYOITHzIqMnbJ5mGbbBTICKbjayKaRs7uZlhWbjY8qey2QhT8eRo/SJspSmH+TYEymaWMKamSzhUlJebNkKGknIu0RUoqv4vWiMLSnEIU1vgUopVvyFPCrM4VIlGBqYqIhFllhRuIire9G5RCF5iiFNrJFKWVRc1TeoxpHO0elgvwrj0ex/tz+D6+MLuu8bKNz38A);strokeColor=none;strokeWidth=17;spacingTop=-3;spacingBottom=-3;spacingLeft=-3;spacingRight=-3;points=[];labelBackgroundColor=none;rounded=0;html=1;whiteSpace=wrap;" vertex="1" parent="tmEIZODM_RHfzEJAgpSY-76">
          <mxGeometry y="19" width="39" height="28" as="geometry" />
        </mxCell>
        <mxCell id="tmEIZODM_RHfzEJAgpSY-79" style="vsdxID=11174;fillColor=#dd5900;gradientColor=none;shape=stencil(nZBRDoQgDERP03+WHsHFe5iISyOCQdT19kIaIxq//Jtp3zTpAFaTaUYNUkwx+F6v1EYD+AUpyRkdKCYFqACrzgf9C352LfuxyWRWg1/yhT/nRE5IsZWuZtCSK8CPeI0e/hF+jV7AJM4PO7KWCyr390bSiNtEtQM=);strokeColor=none;strokeWidth=17;spacingTop=-3;spacingBottom=-3;spacingLeft=-3;spacingRight=-3;points=[];labelBackgroundColor=none;rounded=0;html=1;whiteSpace=wrap;" vertex="1" parent="tmEIZODM_RHfzEJAgpSY-76">
          <mxGeometry x="14" y="21" width="10" height="4" as="geometry" />
        </mxCell>
        <mxCell id="tmEIZODM_RHfzEJAgpSY-80" style="vsdxID=11175;fillColor=#ba141a;gradientColor=none;shape=stencil(pZPdEoIgEIWfhlsGWAW7NnsPZ8RkMnEQ+3n7JKZJMivtbnf5zs5ZWBCkXZW3EjHSWaMP8qwKWyHYIsZUU0mj7BAhyBCkpTZyb3TfFD5vc0e66KhPrsPF6wTBTDgVI1dfIfds5+FaNSOYErIWjSjmYh6f2lgsCMyEQ/7smm2wgPXwF8+LbuSD53A4iDGNAjhOMMB8Zx7hhP8neLzuW3xqaCE+sTMEz/0tVV379R+fv+77UPJ/BbIb);strokeColor=none;strokeWidth=17;spacingTop=-3;spacingBottom=-3;spacingLeft=-3;spacingRight=-3;points=[];labelBackgroundColor=none;rounded=0;html=1;whiteSpace=wrap;" vertex="1" parent="tmEIZODM_RHfzEJAgpSY-76">
          <mxGeometry x="1" y="21" width="35" height="11" as="geometry" />
        </mxCell>
        <mxCell id="tmEIZODM_RHfzEJAgpSY-81" style="vsdxID=11176;fillColor=#dd5900;gradientColor=none;shape=stencil(nZBRDoQgDERP03+WHsHFe5iISyOCQdT19kIaIxq//Jtp3zTpAFaTaUYNUkwx+F6v1EYD+AUpyRkdKCYFqACrzgf9C352LfuxyWRWg1/yhT/nRE5IsZWuZtCSK8CPeI0e/hF+jV7AJM4PO7KWCyr390bSiNtEtQM=);strokeColor=none;strokeWidth=17;spacingTop=-3;spacingBottom=-3;spacingLeft=-3;spacingRight=-3;points=[];labelBackgroundColor=none;rounded=0;html=1;whiteSpace=wrap;" vertex="1" parent="tmEIZODM_RHfzEJAgpSY-76">
          <mxGeometry x="1" y="34" width="10" height="4" as="geometry" />
        </mxCell>
        <mxCell id="tmEIZODM_RHfzEJAgpSY-82" style="vsdxID=11177;fillColor=#ba141a;gradientColor=none;shape=stencil(pZRNDoMgEIVPw5YgY8Gurb2HiVhJrRi1f7evhDQVCRLsboDvMW9gMgjysSl7gSgZp0FdxVNWU4PghCiVXSMGOc0RggJBXqtBXAZ17yqz7ktN6uimHvqGl9ERraDkvVydDdjKbgHSI+awH6YMA/ULyH7YsmEXBwecpBbMAbPMfzNLccb+EyRk411cQ5G4Y8cumBNMuSUAhrPUn+GbfifOACfMj7t2ogWOoVDBG8+5dh+BBjrStREtiGrjwDe5XRktCHyUayla4Fiag9+UqmXbmiG3PF9PtXnLTEQoPg==);strokeColor=none;strokeWidth=17;spacingTop=-3;spacingBottom=-3;spacingLeft=-3;spacingRight=-3;points=[];labelBackgroundColor=none;rounded=0;html=1;whiteSpace=wrap;" vertex="1" parent="tmEIZODM_RHfzEJAgpSY-76">
          <mxGeometry x="1" y="27" width="35" height="18" as="geometry" />
        </mxCell>
        <mxCell id="tmEIZODM_RHfzEJAgpSY-83" style="vsdxID=11178;fillColor=#dd5900;gradientColor=none;shape=stencil(nZBRDoQgDERP03+WHsHFe5iISyOCQdT19kIaIxq//Jtp3zTpAFaTaUYNUkwx+F6v1EYD+AUpyRkdKCYFqACrzgf9C352LfuxyWRWg1/yhT/nRE5IsZWuZtCSK8CPeI0e/hF+jV7AJM4PO7KWCyr390bSiNtEtQM=);strokeColor=none;strokeWidth=17;spacingTop=-3;spacingBottom=-3;spacingLeft=-3;spacingRight=-3;points=[];labelBackgroundColor=none;rounded=0;html=1;whiteSpace=wrap;" vertex="1" parent="tmEIZODM_RHfzEJAgpSY-76">
          <mxGeometry x="26" y="41" width="10" height="4" as="geometry" />
        </mxCell>
        <mxCell id="tmEIZODM_RHfzEJAgpSY-84" style="vsdxID=11179;fillColor=#ba141a;gradientColor=none;shape=stencil(nZBRDoQgDERP03+WHsHFe5iISyOCQdT19kIaIxq//Jtp3zTpAFaTaUYNUkwx+F6v1EYD+AUpyRkdKCYFqACrzgf9C352LfuxyWRWg1/yhT/nRE5IsZWuZtCSK8CPeI0e/hF+jV7AJM4PO7KWCyr390bSiNtEtQM=);strokeColor=none;strokeWidth=17;spacingTop=-3;spacingBottom=-3;spacingLeft=-3;spacingRight=-3;points=[];labelBackgroundColor=none;rounded=0;html=1;whiteSpace=wrap;" vertex="1" parent="tmEIZODM_RHfzEJAgpSY-76">
          <mxGeometry x="1" y="41" width="10" height="4" as="geometry" />
        </mxCell>
        <UserObject label="" tags="Background" id="tmEIZODM_RHfzEJAgpSY-85">
          <mxCell style="vsdxID=11249;fillColor=#fbe5d5;gradientColor=none;shape=stencil(rVFbDsIgEDwNnyQU4glqvcfGblsilmZBS28vZGMsxg9j/JvZmX1kR5g2TLCg0CpE8hdcbR8nYY5CaztPSDZmJEwnTDt4wpH8be6ZL1CcBV39vUxI3KdKh1YbswPTEzuBzlmiVGmKau9zUKM+jlJJQrJBko8QrZ+rrQ5oRJnXyMHBWElhRVx25ebnw/5zVvPFWRm83jxY5zilvf4eSy5xpKZ7AA==);strokeColor=#ed7d31;points=[[0.5,0,0],[0.5,0.5,0],[0.5,0.5,0],[0.5,0.5,0],[1,0.5,0],[0.15,0.85,0],[0.85,0.85,0],[0.85,0.15,0],[0.15,0.15,0]];labelBackgroundColor=none;rounded=0;html=1;whiteSpace=wrap;" vertex="1" parent="1">
            <mxGeometry x="772" y="821" width="40" height="40" as="geometry" />
          </mxCell>
        </UserObject>
        <mxCell id="tmEIZODM_RHfzEJAgpSY-86" value="&lt;div style=&quot;font-size: 1px&quot;&gt;&lt;font style=&quot;font-size:14.11px;font-family:Segoe UI Semibold;color:#ed7d31;direction:ltr;letter-spacing:0px;line-height:120%;opacity:1&quot;&gt;&lt;b&gt;3&lt;br/&gt;&lt;/b&gt;&lt;/font&gt;&lt;/div&gt;" style="text;vsdxID=11249;fillColor=none;gradientColor=none;strokeColor=none;points=[[0.5,0,0],[0.5,0.5,0],[0.5,0.5,0],[0.5,0.5,0],[1,0.5,0],[0.15,0.85,0],[0.85,0.85,0],[0.85,0.15,0],[0.15,0.15,0]];labelBackgroundColor=none;rounded=0;html=1;whiteSpace=wrap;verticalAlign=middle;align=center;overflow=width;;html=1;" vertex="1" parent="tmEIZODM_RHfzEJAgpSY-85">
          <mxGeometry x="2.5" y="5" width="35" height="30" as="geometry" />
        </mxCell>
        <mxCell id="tmEIZODM_RHfzEJAgpSY-87" vertex="1" parent="1">
          <mxGeometry x="46" y="939" as="geometry" />
        </mxCell>
        <UserObject label="" tags="Background" id="tmEIZODM_RHfzEJAgpSY-88">
          <mxCell style="vsdxID=10761;edgeStyle=none;startArrow=none;endArrow=classic;startSize=5;endSize=5;strokeColor=#6b859a;spacingTop=0;spacingBottom=0;spacingLeft=0;spacingRight=0;verticalAlign=middle;html=1;labelBackgroundColor=#FFFFFF;rounded=0;entryX=0;entryY=0.5;entryDx=0;entryDy=0;entryPerimeter=0;" edge="1" parent="1" source="tmEIZODM_RHfzEJAgpSY-87" target="tmEIZODM_RHfzEJAgpSY-7">
            <mxGeometry relative="1" as="geometry">
              <Array as="points" />
            </mxGeometry>
          </mxCell>
        </UserObject>
        <UserObject label="" tags="Background" id="tmEIZODM_RHfzEJAgpSY-89">
          <mxCell style="vsdxID=10751;edgeStyle=none;startArrow=none;endArrow=classic;startSize=5;endSize=5;strokeColor=#6b859a;spacingTop=0;spacingBottom=0;spacingLeft=0;spacingRight=0;verticalAlign=middle;html=1;labelBackgroundColor=#FFFFFF;rounded=0;exitX=1;exitY=0.5;exitDx=0;exitDy=0;exitPerimeter=0;entryX=0;entryY=0.5;entryDx=0;entryDy=0;entryPerimeter=0;" edge="1" parent="1" source="tmEIZODM_RHfzEJAgpSY-7" target="tmEIZODM_RHfzEJAgpSY-4">
            <mxGeometry relative="1" as="geometry">
              <mxPoint as="offset" />
              <Array as="points" />
            </mxGeometry>
          </mxCell>
        </UserObject>
        <UserObject label="" tags="Background" id="tmEIZODM_RHfzEJAgpSY-90">
          <mxCell style="vsdxID=10749;edgeStyle=none;startArrow=classic;endArrow=classic;startSize=5;endSize=5;strokeColor=#ffc000;spacingTop=0;spacingBottom=0;spacingLeft=0;spacingRight=0;verticalAlign=middle;html=1;labelBackgroundColor=#FFFFFF;rounded=0;exitX=0;exitY=0.5;exitDx=0;exitDy=0;exitPerimeter=0;entryX=1;entryY=0.5;entryDx=0;entryDy=0;entryPerimeter=0;" edge="1" parent="1" source="tmEIZODM_RHfzEJAgpSY-10" target="tmEIZODM_RHfzEJAgpSY-1">
            <mxGeometry relative="1" as="geometry">
              <Array as="points" />
            </mxGeometry>
          </mxCell>
        </UserObject>
        <mxCell id="tmEIZODM_RHfzEJAgpSY-92" value="" style="image;sketch=0;aspect=fixed;html=1;points=[];align=center;fontSize=12;image=img/lib/mscae/VM_Scale_Set.svg;" vertex="1" parent="1">
          <mxGeometry x="840" y="879" width="69" height="69" as="geometry" />
        </mxCell>
      </root>
    </mxGraphModel>
  </diagram>
</mxfile>
